<svg xmlns="http://www.w3.org/2000/svg" viewBox="0 0 3355.01 285.3"><g id="Layer_2" data-name="Layer 2"><g id="Layer_1-2" data-name="Layer 1"><path d="M150.71,0,260.5,281H219.19l-30.7-84.61H69.65L38.17,281H0L109.4,0Zm26,164.88-46.83-131h-.79l-47.61,131Z"/><path d="M304.58,0V105.07h.78a50.13,50.13,0,0,1,26-24.6,97.09,97.09,0,0,1,39-7.67q23.61,0,41.13,8.66a83.82,83.82,0,0,1,29.12,23.41,103.75,103.75,0,0,1,17.51,34,139.27,139.27,0,0,1,5.9,40.92,143.62,143.62,0,0,1-5.71,40.93,96.45,96.45,0,0,1-17.31,33.65A81.72,81.72,0,0,1,411.81,277q-17.52,8.27-40.73,8.27a100.38,100.38,0,0,1-16.72-1.58,92.85,92.85,0,0,1-18.3-5.11A71.08,71.08,0,0,1,318.94,269a53.83,53.83,0,0,1-13.58-15.16h-.78V281H271.13V0ZM424.79,149.73a74.7,74.7,0,0,0-11.41-24.2,55.92,55.92,0,0,0-19.67-16.92q-12-6.28-28.14-6.3-16.92,0-28.73,6.69a57.68,57.68,0,0,0-19.28,17.51,73.41,73.41,0,0,0-10.82,24.6,119.22,119.22,0,0,0,.2,56.86,71.68,71.68,0,0,0,11.21,24.6A57.31,57.31,0,0,0,338,249.68q12.18,6.49,29.51,6.5t28.92-6.69a53.71,53.71,0,0,0,18.69-17.71,76.82,76.82,0,0,0,10.23-25.19,133.66,133.66,0,0,0,3.15-29.12A104.12,104.12,0,0,0,424.79,149.73Z"/><path d="M486,137.53a94.85,94.85,0,0,1,18.89-33.84A88.94,88.94,0,0,1,536,81.06q18.48-8.27,42.5-8.26,24.39,0,42.69,8.26A89.55,89.55,0,0,1,652,103.69a95.15,95.15,0,0,1,18.89,33.84,135.76,135.76,0,0,1,6.3,41.91,133.84,133.84,0,0,1-6.3,41.71A95.26,95.26,0,0,1,652,254.8a87.31,87.31,0,0,1-30.89,22.43q-18.3,8.06-42.69,8.07-24,0-42.5-8.07a86.74,86.74,0,0,1-31.09-22.43A95,95,0,0,1,486,221.15a133.55,133.55,0,0,1-6.3-41.71A135.46,135.46,0,0,1,486,137.53Zm34,74.77a68.64,68.64,0,0,0,13.57,24,58.74,58.74,0,0,0,20.27,14.76,61.63,61.63,0,0,0,49.19,0,58.84,58.84,0,0,0,20.27-14.76,68.8,68.8,0,0,0,13.57-24q4.92-14.36,4.92-32.86t-4.92-32.86a71.16,71.16,0,0,0-13.57-24.2,58,58,0,0,0-20.27-14.95,61.63,61.63,0,0,0-49.19,0,57.9,57.9,0,0,0-20.27,14.95A71,71,0,0,0,520,146.58Q515.1,161,515.1,179.44T520,212.3Z"/><path d="M840.92,281V248.7h-.78Q829.5,267.59,813,276.44t-39,8.86q-20.07,0-33.45-5.32a53.23,53.23,0,0,1-21.64-15.15,56.82,56.82,0,0,1-11.61-23.41,125.39,125.39,0,0,1-3.35-30.1V77.52h33.45V215.25q0,18.88,11,29.91t30.3,11q15.35,0,26.56-4.73A49.56,49.56,0,0,0,824,238.07a57.71,57.71,0,0,0,11.22-20.26A82.48,82.48,0,0,0,839,192.43V77.52H872.4V281Z"/><path d="M997.15,77.52V107H956.62V233.35a36.36,36.36,0,0,0,1,9.45,9.68,9.68,0,0,0,3.74,5.51,16.46,16.46,0,0,0,7.67,2.55,110.08,110.08,0,0,0,12.79.59h15.35V281H971.57a120.06,120.06,0,0,1-22.23-1.77q-9.26-1.77-15-6.5t-8.46-13.38q-2.76-8.64-2.75-22.82V107H888.54V77.52h34.63v-61h33.45v61Z"/><path d="M1205.31,77.52V107h-40.53V233.35a36.36,36.36,0,0,0,1,9.45,9.68,9.68,0,0,0,3.74,5.51,16.46,16.46,0,0,0,7.67,2.55,110.08,110.08,0,0,0,12.79.59h15.35V281h-25.58a120.06,120.06,0,0,1-22.23-1.77q-9.26-1.77-15-6.5t-8.46-13.38q-2.74-8.64-2.75-22.82V107H1096.7V77.52h34.63v-61h33.45v61Z"/><path d="M1263.15,0V107.43h.79a44.48,44.48,0,0,1,11-15.94,62.42,62.42,0,0,1,15.93-10.62,82.43,82.43,0,0,1,18.5-6.1,93.42,93.42,0,0,1,18.69-2q20.07,0,33.45,5.51a55,55,0,0,1,21.64,15.35,57,57,0,0,1,11.61,23.41,125.83,125.83,0,0,1,3.35,30.1V281h-33.45V143.24q0-18.89-11-29.91t-30.3-11q-15.34,0-26.56,4.73a49.75,49.75,0,0,0-18.69,13.37,57.71,57.71,0,0,0-11.22,20.27,82.18,82.18,0,0,0-3.74,25.38V281H1229.7V0Z"/><path d="M1437.87,40.93V0h33.45V40.93Zm33.45,36.59V281h-33.45V77.52Z"/><path d="M1536.24,235.52a35.67,35.67,0,0,0,12.4,12.2,55.78,55.78,0,0,0,17.31,6.49,99.29,99.29,0,0,0,19.88,2,123.57,123.57,0,0,0,16.52-1.18,60.77,60.77,0,0,0,15.94-4.33,29.94,29.94,0,0,0,12-9.25q4.73-6.1,4.72-15.54,0-13-9.83-19.68t-24.6-10.82q-14.76-4.14-32.07-7.48a165.33,165.33,0,0,1-32.07-9.44,66.41,66.41,0,0,1-24.6-17.12q-9.84-11-9.83-30.69,0-15.36,6.88-26.37a56.28,56.28,0,0,1,17.71-17.9A81.57,81.57,0,0,1,1551,76.14a112.81,112.81,0,0,1,27-3.34,160.46,160.46,0,0,1,31.87,3A73.82,73.82,0,0,1,1635.6,86a53,53,0,0,1,17.91,19.68q6.69,12.39,7.87,30.89h-33.45q-.79-9.84-5.11-16.33a33.8,33.8,0,0,0-11-10.43,50.36,50.36,0,0,0-14.76-5.71,76,76,0,0,0-16.33-1.77,100.32,100.32,0,0,0-15.15,1.18,50.93,50.93,0,0,0-14,4.14,28,28,0,0,0-10.23,7.87q-3.94,4.92-3.94,12.78a18.82,18.82,0,0,0,6.1,14.37,48.75,48.75,0,0,0,15.55,9.44,134.63,134.63,0,0,0,21.25,6.3q11.81,2.56,23.61,5.31a253.33,253.33,0,0,1,24.59,6.69,80.46,80.46,0,0,1,21.25,10.43,50.94,50.94,0,0,1,15,16.33q5.7,9.84,5.71,24.4,0,18.49-7.67,30.69a60,60,0,0,1-20.07,19.68,83.89,83.89,0,0,1-27.94,10.42,165.16,165.16,0,0,1-30.89,3,142.55,142.55,0,0,1-32.27-3.55,79.08,79.08,0,0,1-27.15-11.6,59.19,59.19,0,0,1-18.89-21.25q-7.08-13.18-7.87-32.08h33.45Q1531.51,227.84,1536.24,235.52Z"/><path d="M1991.14,0V31.48H1834.52v89.33h146v31.48h-146v97.2h157.8V281H1797.14V0Z"/><path d="M2003.34,77.52h42.89l48.8,71.23,50.76-71.23h40.14l-70,93.66L2194.58,281h-42.89L2095,196.76,2038.36,281h-40.53l76.34-107Z"/><path d="M2244.16,0V107.43h.79a44.48,44.48,0,0,1,11-15.94,62.3,62.3,0,0,1,15.94-10.62,82.18,82.18,0,0,1,18.49-6.1,93.49,93.49,0,0,1,18.69-2q20.07,0,33.45,5.51a55,55,0,0,1,21.64,15.35,57,57,0,0,1,11.61,23.41,125.83,125.83,0,0,1,3.35,30.1V281h-33.45V143.24q0-18.89-11-29.91t-30.3-11q-15.35,0-26.56,4.73a49.75,49.75,0,0,0-18.69,13.37,57.71,57.71,0,0,0-11.22,20.27,82.18,82.18,0,0,0-3.74,25.38V281h-33.45V0Z"/><path d="M2418.88,40.93V0h33.45V40.93Zm33.45,36.59V281h-33.45V77.52Z"/><path d="M2526.3,0V105.07h.79a50.13,50.13,0,0,1,26-24.6,97.06,97.06,0,0,1,39-7.67q23.61,0,41.12,8.66a83.64,83.64,0,0,1,29.12,23.41,103.37,103.37,0,0,1,17.51,34,138.94,138.94,0,0,1,5.91,40.92,143.62,143.62,0,0,1-5.71,40.93,96.62,96.62,0,0,1-17.31,33.65A81.72,81.72,0,0,1,2633.54,277q-17.52,8.27-40.73,8.27a100.49,100.49,0,0,1-16.73-1.58,92.94,92.94,0,0,1-18.29-5.11,71.08,71.08,0,0,1-17.12-9.64,53.83,53.83,0,0,1-13.58-15.16h-.79V281h-33.44V0Zm120.22,149.73a74.7,74.7,0,0,0-11.41-24.2,56,56,0,0,0-19.68-16.92q-12-6.28-28.13-6.3-16.92,0-28.73,6.69a57.68,57.68,0,0,0-19.28,17.51,73,73,0,0,0-10.82,24.6,118.89,118.89,0,0,0,.2,56.86,71.5,71.5,0,0,0,11.21,24.6,57.37,57.37,0,0,0,19.87,17.11q12.2,6.49,29.52,6.5t28.92-6.69a53.8,53.8,0,0,0,18.69-17.71,77,77,0,0,0,10.23-25.19,133.66,133.66,0,0,0,3.15-29.12A104.12,104.12,0,0,0,2646.52,149.73Z"/><path d="M2714.4,40.93V0h33.45V40.93Zm33.45,36.59V281H2714.4V77.52Z"/><path d="M2874.16,77.52V107h-40.53V233.35a36.36,36.36,0,0,0,1,9.45,9.68,9.68,0,0,0,3.74,5.51,16.46,16.46,0,0,0,7.67,2.55,110.08,110.08,0,0,0,12.79.59h15.35V281h-25.58a120.06,120.06,0,0,1-22.23-1.77q-9.26-1.77-15-6.5t-8.46-13.38q-2.76-8.64-2.75-22.82V107h-34.63V77.52h34.63v-61h33.45v61Z"/><path d="M2900.52,40.93V0H2934V40.93ZM2934,77.52V281h-33.45V77.52Z"/><path d="M2968.59,137.53a94.85,94.85,0,0,1,18.89-33.84,88.94,88.94,0,0,1,31.09-22.63q18.48-8.27,42.49-8.26,24.41,0,42.7,8.26a89.55,89.55,0,0,1,30.89,22.63,95.15,95.15,0,0,1,18.89,33.84,135.76,135.76,0,0,1,6.3,41.91,133.84,133.84,0,0,1-6.3,41.71,95.26,95.26,0,0,1-18.89,33.65,87.31,87.31,0,0,1-30.89,22.43q-18.3,8.06-42.7,8.07-24,0-42.49-8.07a86.74,86.74,0,0,1-31.09-22.43,95,95,0,0,1-18.89-33.65,133.55,133.55,0,0,1-6.3-41.71A135.46,135.46,0,0,1,2968.59,137.53Zm34,74.77a68.64,68.64,0,0,0,13.57,24,58.74,58.74,0,0,0,20.27,14.76,61.63,61.63,0,0,0,49.19,0,58.8,58.8,0,0,0,20.26-14.76,68.66,68.66,0,0,0,13.58-24q4.92-14.36,4.92-32.86t-4.92-32.86a71,71,0,0,0-13.58-24.2,58,58,0,0,0-20.26-14.95,61.63,61.63,0,0,0-49.19,0,57.9,57.9,0,0,0-20.27,14.95,71,71,0,0,0-13.57,24.2q-4.93,14.37-4.92,32.86T3002.63,212.3Z"/><path d="M3218.07,77.52v32.27h.79q20.85-37,66.11-37,20.07,0,33.45,5.51a55.12,55.12,0,0,1,21.64,15.35,57,57,0,0,1,11.61,23.41,126.37,126.37,0,0,1,3.34,30.1V281h-33.44V143.24q0-18.89-11-29.91t-30.3-11q-15.35,0-26.57,4.73A49.83,49.83,0,0,0,3235,120.41a57.84,57.84,0,0,0-11.21,20.27,82.18,82.18,0,0,0-3.74,25.38V281h-33.45V77.52Z"/></g></g></svg>