<svg xmlns="http://www.w3.org/2000/svg" viewBox="0 0 2910.49 285.3"><g id="Layer_2" data-name="Layer 2"><g id="Layer_1-2" data-name="Layer 1"><path d="M150.71,0,260.5,281H219.19l-30.7-84.61H69.65L38.17,281H0L109.4,0Zm26,164.88-46.83-131h-.79l-47.61,131Z"/><path d="M305.36,0V281H271.92V0Z"/><path d="M488.73,268q-22.82,17.32-57.45,17.32-24.4,0-42.3-7.87a83.34,83.34,0,0,1-30.1-22,93.42,93.42,0,0,1-18.3-33.84,162.73,162.73,0,0,1-6.89-42.9,122.53,122.53,0,0,1,7.08-42.5,101.62,101.62,0,0,1,19.88-33.44,90,90,0,0,1,30.3-22,92.59,92.59,0,0,1,38.36-7.87q27.17,0,45.06,11.21a89.3,89.3,0,0,1,28.73,28.53,112.85,112.85,0,0,1,14.95,37.78,162,162,0,0,1,3.34,39H369.11a80.54,80.54,0,0,0,3.14,25.38,57.48,57.48,0,0,0,11.42,21.25,56.1,56.1,0,0,0,20.07,14.76q12.18,5.51,28.72,5.51,21.26,0,34.83-9.84t17.9-29.91h33.06Q511.54,250.66,488.73,268Zm-8.06-130.64a57.35,57.35,0,0,0-12.2-18.3,58.08,58.08,0,0,0-18.1-12.2,57.38,57.38,0,0,0-23-4.53,58.37,58.37,0,0,0-23.42,4.53A54.16,54.16,0,0,0,386,119.23a59.36,59.36,0,0,0-11.81,18.3,69.52,69.52,0,0,0-5.11,22.24H486A68.72,68.72,0,0,0,480.67,137.34Z"/><path d="M599.31,281,523.75,77.52h37.38l57.06,169.61H619L674.47,77.52h35L635.12,281Z"/><path d="M814.56,77.52V107H774V233.35a36.3,36.3,0,0,0,1,9.45,9.68,9.68,0,0,0,3.74,5.51,16.46,16.46,0,0,0,7.67,2.55,110.08,110.08,0,0,0,12.79.59h15.35V281H789a120.25,120.25,0,0,1-22.24-1.77q-9.24-1.77-15-6.5t-8.46-13.38q-2.76-8.64-2.75-22.82V107H706V77.52h34.63v-61H774v61Z"/><path d="M840.92,40.93V0h33.45V40.93Zm33.45,36.59V281H840.92V77.52Z"/><path d="M945.19,77.52v32.27H946q20.85-37,66.11-37,20.07,0,33.45,5.51a55.12,55.12,0,0,1,21.64,15.35,57,57,0,0,1,11.61,23.41,126.37,126.37,0,0,1,3.34,30.1V281h-33.45V143.24q0-18.89-11-29.91t-30.3-11q-15.36,0-26.57,4.73a49.83,49.83,0,0,0-18.69,13.37,57.84,57.84,0,0,0-11.21,20.27,82.18,82.18,0,0,0-3.74,25.38V281H913.71V77.52Z"/><path d="M1300.14,280.18q-8.66,5.11-24,5.12-13,0-20.66-7.28t-7.67-23.81Q1234,270.74,1215.73,278a110.76,110.76,0,0,1-65.72,4.13,60.84,60.84,0,0,1-21.44-9.84,47.2,47.2,0,0,1-14.37-17.51q-5.31-10.81-5.31-26.17,0-17.31,5.9-28.33a51.68,51.68,0,0,1,15.55-17.91,71.55,71.55,0,0,1,22-10.43q12.39-3.54,25.38-5.9,13.77-2.75,26.16-4.13a146.44,146.44,0,0,0,21.84-3.93q9.45-2.56,15-7.48t5.51-14.37q0-11-4.13-17.7a28.37,28.37,0,0,0-10.63-10.23,43.07,43.07,0,0,0-14.56-4.73,111,111,0,0,0-15.94-1.18q-21.24,0-35.41,8.07t-15.35,30.5h-33.45q.79-18.9,7.87-31.88a59.73,59.73,0,0,1,18.89-21,79.32,79.32,0,0,1,27-11.61,142.27,142.27,0,0,1,32.46-3.54,190.7,190.7,0,0,1,27.35,2,71.5,71.5,0,0,1,24.59,8,47,47,0,0,1,17.71,17.08q6.69,11,6.69,28.66V233q0,11.79,1.38,17.28t9.25,5.49a40.57,40.57,0,0,0,10.23-1.57ZM1245.83,175.9q-6.3,4.71-16.52,6.86t-21.45,3.52q-11.22,1.36-22.63,3.13a83.67,83.67,0,0,0-20.46,5.68A37.13,37.13,0,0,0,1150,206.25q-5.7,7.25-5.7,19.77a27,27,0,0,0,3.34,13.91,27.87,27.87,0,0,0,8.66,9.2,36.27,36.27,0,0,0,12.4,5.09,68.68,68.68,0,0,0,15,1.56q16.53,0,28.33-4.5a59.7,59.7,0,0,0,19.28-11.35,44.89,44.89,0,0,0,11-14.88,37.5,37.5,0,0,0,3.54-15.08Z"/><path d="M1458.33,0V140.09L1600.78,0h48.4L1530.73,113.33,1653.9,281h-47.22L1505.15,138.91l-46.82,43.68V281h-37.39V0Z"/><path d="M1845.54,280.18q-8.67,5.11-24,5.12-13,0-20.66-7.28t-7.67-23.81q-13.79,16.53-32.07,23.81a110.76,110.76,0,0,1-65.72,4.13,60.84,60.84,0,0,1-21.44-9.84,47.2,47.2,0,0,1-14.37-17.51q-5.31-10.81-5.31-26.17,0-17.31,5.9-28.33a51.68,51.68,0,0,1,15.55-17.91,71.6,71.6,0,0,1,22-10.43q12.4-3.54,25.39-5.9,13.77-2.75,26.16-4.13a146.44,146.44,0,0,0,21.84-3.93q9.45-2.56,15-7.48t5.51-14.37q0-11-4.13-17.7a28.37,28.37,0,0,0-10.63-10.23,43.15,43.15,0,0,0-14.56-4.73,111,111,0,0,0-15.94-1.18q-21.24,0-35.41,8.07t-15.35,30.5h-33.45q.78-18.9,7.87-31.88a59.73,59.73,0,0,1,18.89-21,79.32,79.32,0,0,1,27-11.61,142.27,142.27,0,0,1,32.46-3.54,190.7,190.7,0,0,1,27.35,2,71.5,71.5,0,0,1,24.59,8A47,47,0,0,1,1818,99.9q6.69,11,6.69,28.66V233q0,11.79,1.38,17.28t9.25,5.49a40.57,40.57,0,0,0,10.23-1.57ZM1791.23,175.9q-6.3,4.71-16.52,6.86t-21.45,3.52q-11.22,1.36-22.63,3.13a83.67,83.67,0,0,0-20.46,5.68,37.13,37.13,0,0,0-14.76,11.16q-5.7,7.25-5.7,19.77a27,27,0,0,0,3.34,13.91,27.87,27.87,0,0,0,8.66,9.2,36.27,36.27,0,0,0,12.4,5.09,68.68,68.68,0,0,0,15,1.56q16.53,0,28.33-4.5a59.7,59.7,0,0,0,19.28-11.35,44.89,44.89,0,0,0,11-14.88,37.5,37.5,0,0,0,3.54-15.08Z"/><path d="M1899.44,0V166.46l92.87-88.94h44.86l-80.67,74L2043.08,281h-42.5l-69.66-106.25-31.48,29.12V281H1866V0Z"/><path d="M2089.11,0V107.43h.79a44.48,44.48,0,0,1,11-15.94,62.3,62.3,0,0,1,15.94-10.62,82.18,82.18,0,0,1,18.49-6.1,93.57,93.57,0,0,1,18.69-2q20.07,0,33.45,5.51a55.08,55.08,0,0,1,21.65,15.35,57.11,57.11,0,0,1,11.6,23.41,125.83,125.83,0,0,1,3.35,30.1V281h-33.45V143.24q0-18.89-11-29.91t-30.3-11q-15.34,0-26.56,4.73a49.75,49.75,0,0,0-18.69,13.37,57.71,57.71,0,0,0-11.22,20.27,82.48,82.48,0,0,0-3.74,25.38V281h-33.44V0Z"/><path d="M2263.83,40.93V0h33.45V40.93Zm33.45,36.59V281h-33.45V77.52Z"/><path d="M2485,281V253.42h-.78a49.22,49.22,0,0,1-26,24.4,99.21,99.21,0,0,1-38.95,7.48q-23.61,0-41.13-8.66A84.63,84.63,0,0,1,2349,253.42a101.11,101.11,0,0,1-17.51-33.84,139.24,139.24,0,0,1-5.9-40.93,143.34,143.34,0,0,1,5.71-40.92,96.37,96.37,0,0,1,17.31-33.65,83.62,83.62,0,0,1,29.12-22.82q17.51-8.46,40.73-8.46a100.12,100.12,0,0,1,16.92,1.57,86.88,86.88,0,0,1,18.1,5.32,77.4,77.4,0,0,1,17.12,9.83,54.23,54.23,0,0,1,13.58,15.15h.78V0h33.45V281Zm-120.22-72.21a74.72,74.72,0,0,0,11.42,24.2,55.82,55.82,0,0,0,19.67,16.92q12,6.3,28.14,6.3,16.91,0,28.72-6.69A57.7,57.7,0,0,0,2472,232a73.32,73.32,0,0,0,10.82-24.6,118.44,118.44,0,0,0,3.34-27.94,117.24,117.24,0,0,0-3.54-28.92,71.77,71.77,0,0,0-11.21-24.6,57.3,57.3,0,0,0-19.88-17.11q-12.2-6.5-29.51-6.5-16.92,0-28.73,6.69a53.37,53.37,0,0,0-18.88,17.71,76.92,76.92,0,0,0-10.24,25.19A133.72,133.72,0,0,0,2361,181,104.11,104.11,0,0,0,2364.76,208.76Z"/><path d="M2663.63,107H2548.72V77.52h158.2v22.83l-124.35,151.1h129.86V281H2540.85V255.39Z"/><path d="M2877.7,268q-22.83,17.32-57.45,17.32-24.4,0-42.31-7.87a83.42,83.42,0,0,1-30.1-22,93.73,93.73,0,0,1-18.3-33.84,162.73,162.73,0,0,1-6.88-42.9,122.53,122.53,0,0,1,7.08-42.5,101.43,101.43,0,0,1,19.87-33.44,90.13,90.13,0,0,1,30.3-22,92.6,92.6,0,0,1,38.37-7.87q27.15,0,45.06,11.21a89.27,89.27,0,0,1,28.72,28.53,113.08,113.08,0,0,1,15,37.78,162.48,162.48,0,0,1,3.34,39H2758.07a80.84,80.84,0,0,0,3.15,25.38,57.32,57.32,0,0,0,11.41,21.25,56.27,56.27,0,0,0,20.07,14.76q12.2,5.51,28.73,5.51,21.24,0,34.82-9.84t17.91-29.91h33.05Q2900.52,250.66,2877.7,268Zm-8.07-130.64a57.18,57.18,0,0,0-12.2-18.3,60.14,60.14,0,0,0-64.53-12.2A54.1,54.1,0,0,0,2775,119.23a59.33,59.33,0,0,0-11.8,18.3,69.53,69.53,0,0,0-5.12,22.24h116.87A68.22,68.22,0,0,0,2869.63,137.34Z"/></g></g></svg>