<svg xmlns="http://www.w3.org/2000/svg" viewBox="0 0 2700.23 293.95"><g id="Layer_2" data-name="Layer 2"><g id="Layer_1-2" data-name="Layer 1"><path d="M150.71,6.69l109.79,281H219.19l-30.7-84.61H69.65L38.17,287.66H0l109.4-281Zm26,164.88-46.83-131h-.79l-47.61,131Z"/><path d="M301.43,84.21v32.27h.79q20.85-37,66.11-37,20.07,0,33.44,5.51a55.08,55.08,0,0,1,21.65,15.35A57.13,57.13,0,0,1,435,123.76a126.37,126.37,0,0,1,3.34,30.1v133.8H404.92V149.93q0-18.88-11-29.91t-30.3-11q-15.35,0-26.56,4.73a49.75,49.75,0,0,0-18.69,13.37,57.71,57.71,0,0,0-11.22,20.27,82.49,82.49,0,0,0-3.73,25.38V287.66H270V84.21Z"/><path d="M624.5,287.66V260.11h-.79a49.16,49.16,0,0,1-26,24.4,99.21,99.21,0,0,1-39,7.48q-23.62,0-41.13-8.66a84.63,84.63,0,0,1-29.12-23.22A101.11,101.11,0,0,1,471,226.27a139.24,139.24,0,0,1-5.9-40.93,143.7,143.7,0,0,1,5.7-40.92,96.39,96.39,0,0,1,17.32-33.65A83.53,83.53,0,0,1,517.27,88q17.51-8.46,40.73-8.46a100.12,100.12,0,0,1,16.92,1.57A86.88,86.88,0,0,1,593,86.38a77.4,77.4,0,0,1,17.12,9.83,54,54,0,0,1,13.57,15.15h.79V6.69H658v281ZM504.28,215.45a74.72,74.72,0,0,0,11.42,24.2,55.82,55.82,0,0,0,19.67,16.92q12,6.3,28.14,6.3,16.9,0,28.72-6.69a57.7,57.7,0,0,0,19.29-17.51,73.32,73.32,0,0,0,10.82-24.6,118.44,118.44,0,0,0,3.34-27.94,117.24,117.24,0,0,0-3.54-28.92,71.77,71.77,0,0,0-11.21-24.6,57.3,57.3,0,0,0-19.88-17.11q-12.19-6.5-29.51-6.5-16.92,0-28.73,6.69a53.48,53.48,0,0,0-18.89,17.71,77.13,77.13,0,0,0-10.23,25.19,133.72,133.72,0,0,0-3.15,29.12A104.12,104.12,0,0,0,504.28,215.45Z"/><path d="M698.87,47.62V6.69h33.45V47.62Zm33.45,36.59V287.66H698.87V84.21Z"/><path d="M1043.19,284.31A132.89,132.89,0,0,1,994,294q-31.49,0-56.28-11.61a127,127,0,0,1-42.1-31.28,136.82,136.82,0,0,1-26.37-45.25,158.18,158.18,0,0,1-9-53.13,199.19,199.19,0,0,1,8.46-58.43,143.86,143.86,0,0,1,25.19-48.6A122.36,122.36,0,0,1,935.56,12.4Q960.55,0,994,0a169.52,169.52,0,0,1,43.09,5.31A109,109,0,0,1,1073.29,22,99.35,99.35,0,0,1,1100.05,51q10.82,17.52,14.76,42.3h-37.39q-2.76-16.12-10.23-27.74a66.17,66.17,0,0,0-18.49-19.09,82.12,82.12,0,0,0-25-11.21A114.67,114.67,0,0,0,994,31.48q-25.59,0-43.88,10.23a88.4,88.4,0,0,0-29.91,27,117.47,117.47,0,0,0-17.11,38.17,175.31,175.31,0,0,0-5.51,43.88,141.66,141.66,0,0,0,6.29,42.3,110.37,110.37,0,0,0,18.5,35.81,90.54,90.54,0,0,0,30.1,24.79q17.91,9.25,41.52,9.25,22,0,39-7.09a80.31,80.31,0,0,0,46-48.6,95.68,95.68,0,0,0,5.11-36H994.39V139.7h123.17v148H1094l-9.84-35Q1067.58,274.68,1043.19,284.31Z"/><path d="M1334.77,286.87q-8.65,5.11-24,5.12-13,0-20.66-7.28t-7.67-23.81q-13.79,16.53-32.07,23.81a110.76,110.76,0,0,1-65.72,4.13A60.8,60.8,0,0,1,1163.2,279a47.08,47.08,0,0,1-14.36-17.51q-5.31-10.81-5.31-26.17,0-17.31,5.9-28.33A51.56,51.56,0,0,1,1165,189.08a71.77,71.77,0,0,1,22-10.43q12.39-3.54,25.38-5.9,13.77-2.75,26.17-4.13a146.91,146.91,0,0,0,21.84-3.93q9.45-2.56,14.95-7.48t5.51-14.37q0-11-4.13-17.7a28.34,28.34,0,0,0-10.62-10.23,43.15,43.15,0,0,0-14.56-4.73,111.09,111.09,0,0,0-15.94-1.18q-21.25,0-35.42,8.07t-15.34,30.5H1151.4q.78-18.9,7.87-31.88a59.73,59.73,0,0,1,18.89-21A79.36,79.36,0,0,1,1205.11,83a142.42,142.42,0,0,1,32.47-3.54,190.57,190.57,0,0,1,27.34,2,71.55,71.55,0,0,1,24.6,8.05,47.17,47.17,0,0,1,17.71,17.08q6.69,11,6.69,28.66V239.7q0,11.79,1.37,17.28t9.25,5.49a40.44,40.44,0,0,0,10.23-1.57Zm-54.3-104.28q-6.3,4.71-16.53,6.86T1242.5,193q-11.22,1.36-22.63,3.13a83.67,83.67,0,0,0-20.46,5.68,37.13,37.13,0,0,0-14.76,11.16q-5.72,7.25-5.71,19.77a27,27,0,0,0,3.35,13.91,27.67,27.67,0,0,0,8.66,9.2,36.3,36.3,0,0,0,12.39,5.09,68.68,68.68,0,0,0,15,1.56q16.53,0,28.34-4.5a59.81,59.81,0,0,0,19.28-11.35,45,45,0,0,0,11-14.88,37.5,37.5,0,0,0,3.54-15.08Z"/><path d="M1388.68,6.69v281h-33.45V6.69Z"/><path d="M1576.38,287.66V260.11h-.79a49.23,49.23,0,0,1-26,24.4,99.26,99.26,0,0,1-39,7.48q-23.61,0-41.12-8.66a84.53,84.53,0,0,1-29.12-23.22,100.93,100.93,0,0,1-17.51-33.84,138.91,138.91,0,0,1-5.9-40.93,143.7,143.7,0,0,1,5.7-40.92A96.39,96.39,0,0,1,1440,110.77,83.53,83.53,0,0,1,1469.15,88q17.5-8.46,40.73-8.46a100.12,100.12,0,0,1,16.92,1.57,86.88,86.88,0,0,1,18.1,5.32A77.63,77.63,0,0,1,1562,96.21a54,54,0,0,1,13.57,15.15h.79V6.69h33.45v281Zm-120.22-72.21a74.91,74.91,0,0,0,11.41,24.2,55.85,55.85,0,0,0,19.68,16.92q12,6.3,28.13,6.3,16.92,0,28.73-6.69a57.57,57.57,0,0,0,19.28-17.51,73.32,73.32,0,0,0,10.82-24.6,119.05,119.05,0,0,0-.19-56.86,71.6,71.6,0,0,0-11.22-24.6,57.17,57.17,0,0,0-19.87-17.11q-12.21-6.5-29.51-6.5-16.93,0-28.73,6.69a53.4,53.4,0,0,0-18.89,17.71,77.13,77.13,0,0,0-10.23,25.19,133.72,133.72,0,0,0-3.15,29.12A103.71,103.71,0,0,0,1456.16,215.45Z"/><path d="M1650.75,47.62V6.69h33.45V47.62Zm33.45,36.59V287.66h-33.45V84.21Z"/><path d="M1893.93,287.66l-98.77-281h40.14l80.27,243.58h.79L1997.42,6.69h39l-100,281Z"/><path d="M2043.07,47.62V6.69h33.45V47.62Zm33.45,36.59V287.66h-33.45V84.21Z"/><path d="M2147.35,84.21v32.27h.78q20.86-37,66.11-37,20.07,0,33.45,5.51a55.08,55.08,0,0,1,21.65,15.35,57.11,57.11,0,0,1,11.6,23.41,125.83,125.83,0,0,1,3.35,30.1v133.8h-33.45V149.93q0-18.88-11-29.91t-30.3-11q-15.34,0-26.56,4.73a49.75,49.75,0,0,0-18.69,13.37,57.71,57.71,0,0,0-11.22,20.27,82.48,82.48,0,0,0-3.74,25.38V287.66h-33.44V84.21Z"/><path d="M2357.48,6.69V173.15l92.87-88.94h44.86l-80.67,74,86.57,129.47h-42.49L2389,181.41l-31.48,29.12v77.13H2324V6.69Z"/><path d="M2509,144.22a95,95,0,0,1,18.89-33.84A89.12,89.12,0,0,1,2559,87.75q18.49-8.27,42.5-8.26,24.39,0,42.7,8.26a89.65,89.65,0,0,1,30.89,22.63,95,95,0,0,1,18.88,33.84,135.46,135.46,0,0,1,6.3,41.91,133.55,133.55,0,0,1-6.3,41.71,95.08,95.08,0,0,1-18.88,33.65,87.4,87.4,0,0,1-30.89,22.43q-18.3,8.06-42.7,8.07-24,0-42.5-8.07a86.92,86.92,0,0,1-31.09-22.43A95.1,95.1,0,0,1,2509,227.84a133.55,133.55,0,0,1-6.29-41.71A135.46,135.46,0,0,1,2509,144.22ZM2543,219a68.66,68.66,0,0,0,13.58,24,58.65,58.65,0,0,0,20.27,14.76,61.61,61.61,0,0,0,49.18,0A58.74,58.74,0,0,0,2646.32,243a68.82,68.82,0,0,0,13.58-24q4.91-14.36,4.91-32.86t-4.91-32.86a71.18,71.18,0,0,0-13.58-24.2,57.9,57.9,0,0,0-20.27-14.95,61.61,61.61,0,0,0-49.18,0,57.81,57.81,0,0,0-20.27,14.95,71,71,0,0,0-13.58,24.2q-4.92,14.37-4.92,32.86T2543,219Z"/></g></g></svg>