<svg xmlns="http://www.w3.org/2000/svg" viewBox="0 0 2163.87 369.11"><g id="Layer_2" data-name="Layer 2"><g id="Layer_1-2" data-name="Layer 1"><path d="M183.57,46.43q-21.45-14.94-51-14.95-25.19,0-43.09,9.45A84.89,84.89,0,0,0,60,66.31a109.45,109.45,0,0,0-17.12,36.4,162.88,162.88,0,0,0-5.51,42.5,182.22,182.22,0,0,0,5.51,45.45A108.56,108.56,0,0,0,60,228a84.4,84.4,0,0,0,29.71,25.38q18.09,9.45,43.29,9.45,18.48,0,32.86-6.1a74.63,74.63,0,0,0,24.79-16.92A78.22,78.22,0,0,0,207,214.07a107.43,107.43,0,0,0,7.08-32.27h37.38q-5.5,53.13-36.59,82.64t-85,29.51q-32.67,0-57.06-11.21a112,112,0,0,1-40.53-30.89q-16.14-19.68-24.2-46.44A198,198,0,0,1,0,148,187.21,187.21,0,0,1,8.66,90.31,138.7,138.7,0,0,1,34,43.29,118.32,118.32,0,0,1,75.75,11.61Q100.74,0,133,0a144.6,144.6,0,0,1,41.71,5.9,112.24,112.24,0,0,1,35,17.32,97.24,97.24,0,0,1,25.58,28.53q10.23,17.11,13.38,39.54H211.32Q205,61.4,183.57,46.43Z"/><path d="M423.81,274.67Q401,292,366.35,292q-24.41,0-42.3-7.87a83.42,83.42,0,0,1-30.1-22,93.42,93.42,0,0,1-18.3-33.84,163.14,163.14,0,0,1-6.89-42.9,122.3,122.3,0,0,1,7.09-42.5,101.43,101.43,0,0,1,19.87-33.44,90,90,0,0,1,30.3-22,92.6,92.6,0,0,1,38.37-7.87q27.15,0,45.05,11.21a89.2,89.2,0,0,1,28.73,28.53A112.85,112.85,0,0,1,453.12,157a162,162,0,0,1,3.35,39H304.18a80.26,80.26,0,0,0,3.15,25.38,57.32,57.32,0,0,0,11.41,21.25,56.1,56.1,0,0,0,20.07,14.76q12.19,5.5,28.72,5.51,21.25,0,34.83-9.84t17.9-29.91h33.06Q446.63,257.35,423.81,274.67ZM415.74,144a57.18,57.18,0,0,0-12.2-18.3,58,58,0,0,0-18.1-12.2,57.38,57.38,0,0,0-23-4.53A58.37,58.37,0,0,0,339,113.53a54.16,54.16,0,0,0-17.9,12.39,59.36,59.36,0,0,0-11.81,18.3,69.52,69.52,0,0,0-5.11,22.24H421.05A68.72,68.72,0,0,0,415.74,144Z"/><path d="M600.09,119.63Q587.51,109,566.25,109q-18.11,0-30.3,6.69a54.16,54.16,0,0,0-19.48,17.71A74.67,74.67,0,0,0,506,158.78a138.34,138.34,0,0,0-3.14,29.71A113.14,113.14,0,0,0,506.24,216a73.87,73.87,0,0,0,10.43,23.81,52.66,52.66,0,0,0,18.5,16.72q11.4,6.3,27.15,6.3,24.78,0,38.76-13t17.12-36.6h34.23q-5.52,37.78-28.14,58.24T562.71,292q-23.22,0-41.12-7.48a79.58,79.58,0,0,1-29.91-21.25,91.76,91.76,0,0,1-18.1-32.86,136.94,136.94,0,0,1-6.1-41.91,149.46,149.46,0,0,1,5.9-42.69,98.62,98.62,0,0,1,17.91-34.63A84,84,0,0,1,521.39,88q18.11-8.46,42.11-8.46A123.13,123.13,0,0,1,596,83.62a79.21,79.21,0,0,1,26.76,12.79,69.87,69.87,0,0,1,19.09,21.84q7.47,13.19,9.44,31.28H616.62Q612.69,130.26,600.09,119.63Z"/><path d="M757.1,314.81A212.3,212.3,0,0,1,745.49,340a68.86,68.86,0,0,1-12.59,16.73,42.61,42.61,0,0,1-15.35,9.44,59,59,0,0,1-19.48,2.95,89.94,89.94,0,0,1-11.8-.78,56.06,56.06,0,0,1-11.41-2.76V334.88a56.08,56.08,0,0,0,10,3.34,42.23,42.23,0,0,0,9.64,1.38q10.23,0,17.12-4.92a30.12,30.12,0,0,0,10.43-14l13.77-34.23L655.18,84.21H693l59.42,166.46h.79L810.22,84.21h35.42Z"/><path d="M896.8,6.69v281H863.35V6.69Z"/><path d="M938.11,47.62V6.69h33.45V47.62Zm33.45,36.59V287.66H938.11V84.21Z"/><path d="M1191.13,286.87q-8.66,5.11-24,5.12-13,0-20.66-7.28t-7.68-23.81q-13.77,16.53-32.07,23.81a110.73,110.73,0,0,1-65.71,4.13,60.8,60.8,0,0,1-21.45-9.84,47.08,47.08,0,0,1-14.36-17.51q-5.31-10.81-5.32-26.17,0-17.31,5.91-28.33a51.56,51.56,0,0,1,15.54-17.91,71.66,71.66,0,0,1,22-10.43q12.39-3.54,25.38-5.9,13.77-2.75,26.17-4.13a146.91,146.91,0,0,0,21.84-3.93q9.43-2.56,15-7.48t5.51-14.37q0-11-4.13-17.7a28.37,28.37,0,0,0-10.63-10.23,43,43,0,0,0-14.56-4.73A111,111,0,0,0,1092,109q-21.26,0-35.42,8.07t-15.35,30.5h-33.44q.78-18.9,7.87-31.88a59.7,59.7,0,0,1,18.88-21,79.41,79.41,0,0,1,27-11.61,142.4,142.4,0,0,1,32.46-3.54,190.7,190.7,0,0,1,27.35,2,71.62,71.62,0,0,1,24.6,8.05,47.17,47.17,0,0,1,17.71,17.08q6.67,11,6.69,28.66V239.7q0,11.79,1.37,17.28t9.25,5.49a40.5,40.5,0,0,0,10.23-1.57Zm-54.3-104.28q-6.3,4.71-16.53,6.86T1098.85,193q-11.2,1.36-22.62,3.13a83.76,83.76,0,0,0-20.47,5.68A37.17,37.17,0,0,0,1041,212.94q-5.71,7.25-5.71,19.77a26.89,26.89,0,0,0,3.35,13.91,27.74,27.74,0,0,0,8.65,9.2,36.35,36.35,0,0,0,12.4,5.09,68.68,68.68,0,0,0,15,1.56q16.53,0,28.34-4.5a59.81,59.81,0,0,0,19.28-11.35,45.13,45.13,0,0,0,11-14.88,37.5,37.5,0,0,0,3.54-15.08Z"/><path d="M1363.88,6.69l88.54,236.11L1541.35,6.69h51.16v281h-35.42V53.91h-.78l-87.76,233.75h-31.87L1348.92,53.91h-.78V287.66h-35.42V6.69Z"/><path d="M1816.8,286.87q-8.65,5.11-24,5.12-13,0-20.66-7.28t-7.67-23.81q-13.79,16.53-32.07,23.81a110.76,110.76,0,0,1-65.72,4.13,61,61,0,0,1-21.45-9.84,47.18,47.18,0,0,1-14.36-17.51q-5.31-10.81-5.31-26.17,0-17.31,5.9-28.33A51.66,51.66,0,0,1,1647,189.08a71.77,71.77,0,0,1,22-10.43q12.39-3.54,25.38-5.9,13.77-2.75,26.17-4.13a146.91,146.91,0,0,0,21.84-3.93q9.45-2.56,15-7.48t5.51-14.37q0-11-4.13-17.7a28.27,28.27,0,0,0-10.62-10.23,43.15,43.15,0,0,0-14.56-4.73,111.09,111.09,0,0,0-15.94-1.18q-21.26,0-35.42,8.07t-15.34,30.5h-33.45q.78-18.9,7.87-31.88a59.73,59.73,0,0,1,18.89-21,79.36,79.36,0,0,1,27-11.61,142.42,142.42,0,0,1,32.47-3.54,190.7,190.7,0,0,1,27.35,2,71.57,71.57,0,0,1,24.59,8.05,47.17,47.17,0,0,1,17.71,17.08q6.69,11,6.69,28.66V239.7q0,11.79,1.38,17.28t9.24,5.49a40.44,40.44,0,0,0,10.23-1.57Zm-54.3-104.28q-6.3,4.71-16.53,6.86T1724.53,193q-11.22,1.36-22.63,3.13a83.67,83.67,0,0,0-20.46,5.68,37.13,37.13,0,0,0-14.76,11.16q-5.72,7.25-5.71,19.77a27,27,0,0,0,3.35,13.91,27.67,27.67,0,0,0,8.66,9.2,36.3,36.3,0,0,0,12.39,5.09,68.71,68.71,0,0,0,15,1.56q16.51,0,28.33-4.5a59.81,59.81,0,0,0,19.28-11.35,45,45,0,0,0,11-14.88,37.5,37.5,0,0,0,3.54-15.08Z"/><path d="M1870.71,6.69v281h-33.45V6.69Z"/><path d="M1912,47.62V6.69h33.45V47.62Zm33.45,36.59V287.66H1912V84.21Z"/><path d="M2020.23,6.69V173.15l92.87-88.94H2158l-80.67,74,86.58,129.47h-42.5l-69.66-106.25-31.48,29.12v77.13h-33.44V6.69Z"/></g></g></svg>