<svg xmlns="http://www.w3.org/2000/svg" viewBox="0 0 1917.94 285.3"><g id="Layer_2" data-name="Layer 2"><g id="Layer_1-2" data-name="Layer 1"><path d="M37.38,0V281H0V0Z"/><path d="M113.72,77.52v32.27h.79q20.85-37,66.11-37,20.07,0,33.45,5.51a55.12,55.12,0,0,1,21.64,15.35,57,57,0,0,1,11.61,23.41,126.37,126.37,0,0,1,3.34,30.1V281H217.21V143.24q0-18.89-11-29.91t-30.3-11q-15.36,0-26.57,4.73a49.83,49.83,0,0,0-18.69,13.37,57.84,57.84,0,0,0-11.21,20.27,82.18,82.18,0,0,0-3.74,25.38V281H82.24V77.52Z"/><path d="M375.41,77.52V107H334.87V233.35a36.3,36.3,0,0,0,1,9.45,9.68,9.68,0,0,0,3.74,5.51,16.46,16.46,0,0,0,7.67,2.55,110.08,110.08,0,0,0,12.79.59h15.35V281H349.83a120.18,120.18,0,0,1-22.24-1.77q-9.24-1.77-14.95-6.5t-8.46-13.38q-2.76-8.64-2.75-22.82V107H266.8V77.52h34.63v-61h33.44v61Z"/><path d="M430.1,77.52v42.89h.79q12.18-24.78,29.9-36.59t44.86-11v35.42q-20.07,0-34.23,5.51a53.94,53.94,0,0,0-22.83,16.13A66.75,66.75,0,0,0,436,155.63q-3.93,15.17-3.93,34.83V281H398.62V77.52Z"/><path d="M506.44,137.53a94.85,94.85,0,0,1,18.89-33.84,88.94,88.94,0,0,1,31.09-22.63q18.5-8.27,42.5-8.26,24.39,0,42.69,8.26a89.55,89.55,0,0,1,30.89,22.63,95,95,0,0,1,18.89,33.84,135.76,135.76,0,0,1,6.3,41.91,133.84,133.84,0,0,1-6.3,41.71A95.1,95.1,0,0,1,672.5,254.8a87.31,87.31,0,0,1-30.89,22.43q-18.3,8.06-42.69,8.07-24,0-42.5-8.07a86.74,86.74,0,0,1-31.09-22.43,95,95,0,0,1-18.89-33.65,133.55,133.55,0,0,1-6.3-41.71A135.46,135.46,0,0,1,506.44,137.53Zm34,74.77a68.5,68.5,0,0,0,13.58,24,58.61,58.61,0,0,0,20.26,14.76,61.63,61.63,0,0,0,49.19,0,58.84,58.84,0,0,0,20.27-14.76,68.8,68.8,0,0,0,13.57-24q4.92-14.36,4.92-32.86t-4.92-32.86a71.16,71.16,0,0,0-13.57-24.2,58,58,0,0,0-20.27-14.95,61.63,61.63,0,0,0-49.19,0,57.77,57.77,0,0,0-20.26,14.95,70.85,70.85,0,0,0-13.58,24.2q-4.92,14.37-4.92,32.86T540.48,212.3Z"/><path d="M872.8,281V253.42H872a49.23,49.23,0,0,1-26,24.4,99.26,99.26,0,0,1-39,7.48q-23.61,0-41.12-8.66a84.44,84.44,0,0,1-29.12-23.22,100.93,100.93,0,0,1-17.51-33.84,138.91,138.91,0,0,1-5.91-40.93,143.34,143.34,0,0,1,5.71-40.92,96.37,96.37,0,0,1,17.31-33.65,83.71,83.71,0,0,1,29.12-22.82q17.51-8.46,40.73-8.46a99.93,99.93,0,0,1,16.92,1.57,86.79,86.79,0,0,1,18.11,5.32,77.33,77.33,0,0,1,17.11,9.83A54.08,54.08,0,0,1,872,104.67h.79V0h33.45V281ZM752.58,208.76A74.91,74.91,0,0,0,764,233a55.85,55.85,0,0,0,19.68,16.92q12,6.3,28.13,6.3,16.92,0,28.73-6.69A57.67,57.67,0,0,0,859.81,232a73.32,73.32,0,0,0,10.82-24.6,119.05,119.05,0,0,0-.19-56.86,71.78,71.78,0,0,0-11.22-24.6,57.26,57.26,0,0,0-19.87-17.11q-12.21-6.5-29.52-6.5-16.92,0-28.72,6.69a53.4,53.4,0,0,0-18.89,17.71A76.91,76.91,0,0,0,752,151.9,133.72,133.72,0,0,0,748.84,181,103.71,103.71,0,0,0,752.58,208.76Z"/><path d="M1082.14,281V248.7h-.79q-10.62,18.89-27.15,27.74t-39,8.86q-20.07,0-33.45-5.32a53.3,53.3,0,0,1-21.64-15.15,56.94,56.94,0,0,1-11.61-23.41,125.91,125.91,0,0,1-3.34-30.1V77.52h33.45V215.25q0,18.88,11,29.91t30.3,11q15.36,0,26.57-4.73a49.71,49.71,0,0,0,18.69-13.38,57.53,57.53,0,0,0,11.21-20.26,82.48,82.48,0,0,0,3.74-25.38V77.52h33.45V281Z"/><path d="M1273,112.94q-12.6-10.64-33.84-10.63-18.11,0-30.3,6.69a54.08,54.08,0,0,0-19.48,17.71,74.47,74.47,0,0,0-10.43,25.38,138.34,138.34,0,0,0-3.15,29.71,113.14,113.14,0,0,0,3.35,27.55,73.66,73.66,0,0,0,10.43,23.81,52.72,52.72,0,0,0,18.49,16.72q11.42,6.3,27.15,6.3,24.8,0,38.77-13t17.11-36.6h34.24q-5.52,37.78-28.14,58.24t-61.58,20.47q-23.22,0-41.12-7.48a79.58,79.58,0,0,1-29.91-21.25,91.61,91.61,0,0,1-18.1-32.86,136.94,136.94,0,0,1-6.1-41.91,149.46,149.46,0,0,1,5.9-42.69,98.62,98.62,0,0,1,17.91-34.63,84,84,0,0,1,30.1-23.22q18.09-8.46,42.11-8.46a123.13,123.13,0,0,1,32.46,4.13,79.21,79.21,0,0,1,26.76,12.79,69.84,69.84,0,0,1,19.08,21.84q7.47,13.18,9.45,31.28h-34.63Q1285.58,123.57,1273,112.94Z"/><path d="M1437.08,77.52V107h-40.53V233.35a36.8,36.8,0,0,0,1,9.45,9.73,9.73,0,0,0,3.74,5.51,16.46,16.46,0,0,0,7.68,2.55,109.77,109.77,0,0,0,12.78.59h15.35V281H1411.5a120.14,120.14,0,0,1-22.23-1.77q-9.26-1.77-15-6.5t-8.46-13.38q-2.76-8.64-2.76-22.82V107h-34.63V77.52h34.63v-61h33.45v61Z"/><path d="M1463.44,40.93V0h33.45V40.93Zm33.45,36.59V281h-33.45V77.52Z"/><path d="M1531.51,137.53a95,95,0,0,1,18.89-33.84,89,89,0,0,1,31.09-22.63Q1600,72.79,1624,72.8q24.39,0,42.69,8.26a89.59,89.59,0,0,1,30.9,22.63,95.13,95.13,0,0,1,18.88,33.84,135.46,135.46,0,0,1,6.3,41.91,133.55,133.55,0,0,1-6.3,41.71,95.24,95.24,0,0,1-18.88,33.65,87.34,87.34,0,0,1-30.9,22.43q-18.29,8.06-42.69,8.07-24,0-42.5-8.07a86.83,86.83,0,0,1-31.09-22.43,95.1,95.1,0,0,1-18.89-33.65,133.55,133.55,0,0,1-6.29-41.71A135.46,135.46,0,0,1,1531.51,137.53Zm34,74.77a68.5,68.5,0,0,0,13.58,24,58.71,58.71,0,0,0,20.26,14.76,61.63,61.63,0,0,0,49.19,0,58.74,58.74,0,0,0,20.27-14.76,68.64,68.64,0,0,0,13.57-24q4.92-14.36,4.92-32.86t-4.92-32.86a71,71,0,0,0-13.57-24.2,57.9,57.9,0,0,0-20.27-14.95,61.63,61.63,0,0,0-49.19,0,57.86,57.86,0,0,0-20.26,14.95,70.85,70.85,0,0,0-13.58,24.2q-4.92,14.37-4.92,32.86T1565.55,212.3Z"/><path d="M1781,77.52v32.27h.78q20.85-37,66.11-37,20.07,0,33.45,5.51A55,55,0,0,1,1903,93.66a57,57,0,0,1,11.61,23.41,125.83,125.83,0,0,1,3.35,30.1V281h-33.45V143.24q0-18.89-11-29.91t-30.3-11q-15.35,0-26.56,4.73a49.75,49.75,0,0,0-18.69,13.37,57.71,57.71,0,0,0-11.22,20.27,82.48,82.48,0,0,0-3.74,25.38V281h-33.45V77.52Z"/></g></g></svg>