<svg xmlns="http://www.w3.org/2000/svg" viewBox="0 0 2874.96 369.9"><g id="Layer_2" data-name="Layer 2"><g id="Layer_1-2" data-name="Layer 1"><path d="M51.16,6.69,139.7,242.8,228.63,6.69h51.16v281H244.37V53.91h-.79L155.83,287.66H124L36.2,53.91h-.78V287.66H0V6.69Z"/><path d="M504.08,286.87q-8.65,5.11-24,5.12-13,0-20.66-7.28t-7.67-23.81Q438,277.43,419.68,284.71A110.76,110.76,0,0,1,354,288.84,60.89,60.89,0,0,1,332.51,279a47.08,47.08,0,0,1-14.36-17.51q-5.31-10.81-5.31-26.17,0-17.31,5.9-28.33a51.56,51.56,0,0,1,15.54-17.91,71.77,71.77,0,0,1,22-10.43q12.39-3.54,25.38-5.9,13.77-2.75,26.17-4.13a146.91,146.91,0,0,0,21.84-3.93q9.45-2.56,15-7.48t5.51-14.37q0-11-4.13-17.7a28.27,28.27,0,0,0-10.62-10.23,43.15,43.15,0,0,0-14.56-4.73A111.09,111.09,0,0,0,404.92,109q-21.26,0-35.42,8.07t-15.34,30.5H320.71q.78-18.9,7.87-31.88a59.73,59.73,0,0,1,18.89-21A79.36,79.36,0,0,1,374.42,83a142.42,142.42,0,0,1,32.47-3.54,190.81,190.81,0,0,1,27.35,2,71.57,71.57,0,0,1,24.59,8.05,47.17,47.17,0,0,1,17.71,17.08q6.69,11,6.69,28.66V239.7q0,11.79,1.38,17.28t9.24,5.49a40.44,40.44,0,0,0,10.23-1.57Zm-54.3-104.28q-6.3,4.71-16.53,6.86T411.81,193q-11.22,1.36-22.63,3.13a83.67,83.67,0,0,0-20.46,5.68A37.13,37.13,0,0,0,354,212.94q-5.71,7.25-5.71,19.77a27,27,0,0,0,3.35,13.91,27.67,27.67,0,0,0,8.66,9.2,36.3,36.3,0,0,0,12.39,5.09,68.68,68.68,0,0,0,15,1.56q16.53,0,28.34-4.5a59.81,59.81,0,0,0,19.28-11.35,45,45,0,0,0,11-14.88,37.5,37.5,0,0,0,3.54-15.08Z"/><path d="M548.15,242.21a35.67,35.67,0,0,0,12.4,12.2,55.78,55.78,0,0,0,17.31,6.49,99.27,99.27,0,0,0,19.87,2,123.6,123.6,0,0,0,16.53-1.18,60.77,60.77,0,0,0,15.94-4.33,29.94,29.94,0,0,0,12-9.25q4.72-6.11,4.72-15.54,0-13-9.84-19.68t-24.59-10.82q-14.76-4.14-32.07-7.48a165.33,165.33,0,0,1-32.07-9.44A66.41,66.41,0,0,1,523.75,168q-9.84-11-9.83-30.69,0-15.36,6.88-26.37a56.28,56.28,0,0,1,17.71-17.9,81.57,81.57,0,0,1,24.4-10.24,112.79,112.79,0,0,1,27-3.34,160.49,160.49,0,0,1,31.88,3,73.82,73.82,0,0,1,25.77,10.23,53,53,0,0,1,17.91,19.68q6.69,12.39,7.87,30.89H639.84q-.8-9.84-5.12-16.33a33.56,33.56,0,0,0-11-10.43A50.36,50.36,0,0,0,609,110.77,76,76,0,0,0,592.62,109a100.32,100.32,0,0,0-15.15,1.18,50.93,50.93,0,0,0-14,4.14,28,28,0,0,0-10.23,7.87q-3.94,4.92-3.94,12.78a18.82,18.82,0,0,0,6.1,14.37A48.75,48.75,0,0,0,571,158.78a134.49,134.49,0,0,0,21.24,6.3q11.81,2.56,23.62,5.31a254.11,254.11,0,0,1,24.59,6.69,80.46,80.46,0,0,1,21.25,10.43,50.94,50.94,0,0,1,15,16.33q5.7,9.84,5.71,24.4,0,18.49-7.67,30.69a60,60,0,0,1-20.07,19.68A83.89,83.89,0,0,1,626.66,289a165.16,165.16,0,0,1-30.89,3,142.55,142.55,0,0,1-32.27-3.55,79.08,79.08,0,0,1-27.15-11.6,59.19,59.19,0,0,1-18.89-21.25q-7.08-13.18-7.87-32.08H543Q543.42,234.54,548.15,242.21Z"/><path d="M740.19,6.69V114.12H741a44.48,44.48,0,0,1,11-15.94,62.47,62.47,0,0,1,15.94-10.62,82.18,82.18,0,0,1,18.49-6.1,93.59,93.59,0,0,1,18.7-2q20.07,0,33.44,5.51a55.08,55.08,0,0,1,21.65,15.35,57.13,57.13,0,0,1,11.61,23.41,126.37,126.37,0,0,1,3.34,30.1v133.8H841.71V149.93q0-18.88-11-29.91t-30.3-11q-15.35,0-26.56,4.73a49.75,49.75,0,0,0-18.69,13.37,57.71,57.71,0,0,0-11.22,20.27,82.49,82.49,0,0,0-3.73,25.38V287.66H706.74V6.69Z"/><path d="M1093.17,286.87q-8.67,5.11-24,5.12-13,0-20.66-7.28t-7.67-23.81q-13.78,16.53-32.07,23.81A110.76,110.76,0,0,1,943,288.84,61,61,0,0,1,921.59,279a47.18,47.18,0,0,1-14.36-17.51q-5.31-10.81-5.31-26.17,0-17.31,5.9-28.33a51.58,51.58,0,0,1,15.55-17.91,71.6,71.6,0,0,1,22-10.43q12.4-3.54,25.38-5.9Q984.55,170,997,168.62a146.67,146.67,0,0,0,21.84-3.93q9.45-2.56,15-7.48t5.5-14.37q0-11-4.13-17.7a28.27,28.27,0,0,0-10.62-10.23,43.15,43.15,0,0,0-14.56-4.73A111,111,0,0,0,994,109q-21.25,0-35.42,8.07t-15.34,30.5H909.79q.78-18.9,7.87-31.88a59.73,59.73,0,0,1,18.89-21A79.36,79.36,0,0,1,963.5,83,142.42,142.42,0,0,1,996,79.49a190.7,190.7,0,0,1,27.35,2,71.57,71.57,0,0,1,24.59,8.05,47.1,47.1,0,0,1,17.71,17.08q6.69,11,6.69,28.66V239.7q0,11.79,1.38,17.28t9.24,5.49a40.57,40.57,0,0,0,10.24-1.57Zm-54.31-104.28q-6.3,4.71-16.53,6.86T1000.89,193q-11.22,1.36-22.63,3.13a83.67,83.67,0,0,0-20.46,5.68A37.13,37.13,0,0,0,943,212.94q-5.71,7.25-5.71,19.77a27,27,0,0,0,3.35,13.91,27.77,27.77,0,0,0,8.66,9.2,36.3,36.3,0,0,0,12.39,5.09,68.71,68.71,0,0,0,15,1.56q16.51,0,28.33-4.5a59.81,59.81,0,0,0,19.28-11.35,45,45,0,0,0,11-14.88,37.5,37.5,0,0,0,3.54-15.08Z"/><path d="M1354.65,45.06Q1336,31.48,1306.84,31.48a114.62,114.62,0,0,0-23.22,2.36,61.91,61.91,0,0,0-20.27,7.87,41.42,41.42,0,0,0-14.16,14.76q-5.31,9.25-5.31,23,0,13,7.67,21.05T1272,113.73a171.8,171.8,0,0,0,28.92,8.46q16.14,3.34,32.86,7.28t32.86,9.24a108.14,108.14,0,0,1,28.92,14.37A68.36,68.36,0,0,1,1416,175.9q7.67,13.78,7.67,34.63,0,22.42-10,38.37a82.69,82.69,0,0,1-25.78,26,112,112,0,0,1-35.22,14.56,171.18,171.18,0,0,1-38.76,4.52,164.5,164.5,0,0,1-44.66-5.9,110.13,110.13,0,0,1-37-17.9,84.73,84.73,0,0,1-25.19-30.7q-9.24-18.67-9.25-44.27h35.42q0,17.72,6.89,30.5a62.41,62.41,0,0,0,18.1,21,76.15,76.15,0,0,0,26.17,12.2,119.75,119.75,0,0,0,30.69,3.94,139.11,139.11,0,0,0,25.38-2.37,74.81,74.81,0,0,0,23-8.06A45.83,45.83,0,0,0,1380,236.89q6.29-9.82,6.3-25.18,0-14.55-7.68-23.61t-20.46-14.76a150.89,150.89,0,0,0-28.92-9.25q-16.14-3.54-32.86-7.28t-32.86-8.65a118.68,118.68,0,0,1-28.92-13,62.08,62.08,0,0,1-20.46-20.85q-7.68-12.79-7.68-32.08,0-21.24,8.66-36.79a75.65,75.65,0,0,1,23-25.58,103.26,103.26,0,0,1,32.66-14.95A144.07,144.07,0,0,1,1308.41,0a150.21,150.21,0,0,1,40.14,5.12A90.93,90.93,0,0,1,1381,21.25a78,78,0,0,1,22,27.74q8.06,16.74,8.85,39.94h-35.41Q1373.34,58.64,1354.65,45.06Z"/><path d="M1506.74,287.66,1431.18,84.21h37.39l57.06,169.61h.79L1581.9,84.21h35l-74.37,203.45Z"/><path d="M1714.91,314.81A213.91,213.91,0,0,1,1703.3,340a69.37,69.37,0,0,1-12.59,16.73,42.7,42.7,0,0,1-15.35,9.44,59,59,0,0,1-19.48,2.95,90.09,90.09,0,0,1-11.81-.78,56.22,56.22,0,0,1-11.41-2.76V334.88a56.47,56.47,0,0,0,10,3.34,42.16,42.16,0,0,0,9.64,1.38q10.23,0,17.12-4.92a30.17,30.17,0,0,0,10.42-14l13.78-34.23L1613,84.21h37.77l59.42,166.46h.79L1768,84.21h35.42Z"/><path d="M1999.42,286.87q-8.67,5.11-24,5.12-13,0-20.66-7.28t-7.67-23.81q-13.78,16.53-32.07,23.81a110.76,110.76,0,0,1-65.72,4.13,61,61,0,0,1-21.45-9.84,47.18,47.18,0,0,1-14.36-17.51q-5.31-10.81-5.31-26.17,0-17.31,5.9-28.33a51.58,51.58,0,0,1,15.55-17.91,71.6,71.6,0,0,1,22-10.43q12.4-3.54,25.38-5.9,13.77-2.75,26.17-4.13a146.44,146.44,0,0,0,21.84-3.93q9.45-2.56,15-7.48t5.5-14.37q0-11-4.13-17.7a28.27,28.27,0,0,0-10.62-10.23,43.15,43.15,0,0,0-14.56-4.73,111,111,0,0,0-15.94-1.18q-21.26,0-35.42,8.07t-15.34,30.5H1816q.78-18.9,7.87-31.88a59.73,59.73,0,0,1,18.89-21,79.36,79.36,0,0,1,27-11.61,142.42,142.42,0,0,1,32.47-3.54,190.7,190.7,0,0,1,27.35,2,71.57,71.57,0,0,1,24.59,8.05,47.1,47.1,0,0,1,17.71,17.08q6.69,11,6.69,28.66V239.7q0,11.79,1.38,17.28t9.24,5.49a40.57,40.57,0,0,0,10.24-1.57Zm-54.31-104.28q-6.3,4.71-16.53,6.86T1907.14,193q-11.22,1.36-22.63,3.13a83.67,83.67,0,0,0-20.46,5.68,37.13,37.13,0,0,0-14.76,11.16q-5.7,7.25-5.71,19.77a27,27,0,0,0,3.35,13.91,27.87,27.87,0,0,0,8.66,9.2,36.3,36.3,0,0,0,12.39,5.09,68.84,68.84,0,0,0,15,1.56q16.53,0,28.33-4.5a59.81,59.81,0,0,0,19.28-11.35,45,45,0,0,0,11-14.88,37.5,37.5,0,0,0,3.54-15.08Z"/><path d="M2104.87,84.21v29.52h-40.53V240a36.8,36.8,0,0,0,1,9.45,9.73,9.73,0,0,0,3.74,5.51,16.46,16.46,0,0,0,7.68,2.55,109.77,109.77,0,0,0,12.78.59h15.35v29.52h-25.58a120.14,120.14,0,0,1-22.23-1.77q-9.26-1.77-15-6.5T2033.65,266q-2.76-8.64-2.76-22.82V113.73h-34.63V84.21h34.63v-61h33.45v61Z"/><path d="M2124.54,144.22a95,95,0,0,1,18.89-33.84,88.94,88.94,0,0,1,31.09-22.63q18.49-8.27,42.5-8.26,24.39,0,42.69,8.26a89.46,89.46,0,0,1,30.89,22.63,95,95,0,0,1,18.89,33.84,135.46,135.46,0,0,1,6.3,41.91,133.55,133.55,0,0,1-6.3,41.71,95.1,95.1,0,0,1-18.89,33.65,87.22,87.22,0,0,1-30.89,22.43Q2241.41,292,2217,292q-24,0-42.5-8.07a86.74,86.74,0,0,1-31.09-22.43,95.1,95.1,0,0,1-18.89-33.65,133.55,133.55,0,0,1-6.29-41.71A135.46,135.46,0,0,1,2124.54,144.22Zm34,74.77a68.5,68.5,0,0,0,13.58,24,58.61,58.61,0,0,0,20.26,14.76,61.63,61.63,0,0,0,49.19,0A58.84,58.84,0,0,0,2261.88,243a68.64,68.64,0,0,0,13.57-24q4.92-14.36,4.92-32.86t-4.92-32.86a71,71,0,0,0-13.57-24.2,58,58,0,0,0-20.27-14.95,61.63,61.63,0,0,0-49.19,0,57.77,57.77,0,0,0-20.26,14.95,70.85,70.85,0,0,0-13.58,24.2q-4.92,14.37-4.92,32.86T2158.58,219Z"/><path d="M2495.23,345.11q-22.83,24.79-71.62,24.79a138.36,138.36,0,0,1-28.93-3.15,88.62,88.62,0,0,1-26.75-10.23A62.35,62.35,0,0,1,2348.05,338q-7.87-11.43-8.65-27.94h33.44a24.74,24.74,0,0,0,5.71,15.34,41.65,41.65,0,0,0,13,10.24,62.84,62.84,0,0,0,16.72,5.7,90.27,90.27,0,0,0,17.32,1.77q16.52,0,27.93-5.7a52.45,52.45,0,0,0,18.89-15.74,65.06,65.06,0,0,0,10.82-24.2,135.32,135.32,0,0,0,3.35-31.09V253h-.79q-8.66,18.89-26.17,27.74a81.31,81.31,0,0,1-37.18,8.85q-22.83,0-39.75-8.26a83.23,83.23,0,0,1-28.33-22.23,94.57,94.57,0,0,1-17.12-32.66,134.84,134.84,0,0,1-5.7-39.55,154.51,154.51,0,0,1,4.72-37.19A101.46,101.46,0,0,1,2352,115.1a86.24,86.24,0,0,1,29.12-25.58q18.09-10,44.47-10A75.09,75.09,0,0,1,2461,88a59.62,59.62,0,0,1,25.19,25.38h.39V84.21h31.48V270.34Q2518.05,320.32,2495.23,345.11Zm-42.7-91.49a54.89,54.89,0,0,0,18.69-18.1,82.86,82.86,0,0,0,10.43-25.38A123,123,0,0,0,2485,181.8a111.94,111.94,0,0,0-3.15-26.36,73.92,73.92,0,0,0-10-23.42,52.28,52.28,0,0,0-17.9-16.72q-11-6.28-26.76-6.3-16.14,0-27.55,6.1a53.55,53.55,0,0,0-18.69,16.33A69.08,69.08,0,0,0,2370.29,155a114.4,114.4,0,0,0-3.35,27.94,139.84,139.84,0,0,0,2.76,27.55,78.26,78.26,0,0,0,9.44,25,53.16,53.16,0,0,0,17.71,18.1q11,6.88,27.54,6.88T2452.53,253.62Z"/><path d="M2551.1,144.22A94.85,94.85,0,0,1,2570,110.38a88.94,88.94,0,0,1,31.09-22.63q18.49-8.27,42.5-8.26,24.39,0,42.69,8.26a89.55,89.55,0,0,1,30.89,22.63,95,95,0,0,1,18.89,33.84,135.46,135.46,0,0,1,6.3,41.91,133.55,133.55,0,0,1-6.3,41.71,95.1,95.1,0,0,1-18.89,33.65,87.31,87.31,0,0,1-30.89,22.43Q2668,292,2643.58,292q-24,0-42.5-8.07A86.74,86.74,0,0,1,2570,261.49a95,95,0,0,1-18.89-33.65,133.55,133.55,0,0,1-6.3-41.71A135.46,135.46,0,0,1,2551.1,144.22Zm34,74.77a68.5,68.5,0,0,0,13.58,24A58.61,58.61,0,0,0,2619,257.75a61.63,61.63,0,0,0,49.19,0A58.84,58.84,0,0,0,2688.44,243,68.8,68.8,0,0,0,2702,219q4.92-14.36,4.92-32.86T2702,153.27a71.16,71.16,0,0,0-13.57-24.2,58,58,0,0,0-20.27-14.95,61.63,61.63,0,0,0-49.19,0,57.77,57.77,0,0,0-20.26,14.95,70.85,70.85,0,0,0-13.58,24.2q-4.92,14.37-4.92,32.86T2585.14,219Z"/><path d="M2799.4,84.21V127.1h.79q12.2-24.78,29.91-36.59t44.86-11v35.42q-20.07,0-34.24,5.51a54,54,0,0,0-22.82,16.13,66.47,66.47,0,0,0-12.59,25.77q-3.95,15.17-3.94,34.83v90.51h-33.45V84.21Z"/></g></g></svg>