<svg xmlns="http://www.w3.org/2000/svg" viewBox="0 0 2733.68 691.19"><g id="Layer_2" data-name="Layer 2"><g id="Layer_1-2" data-name="Layer 1"><path d="M81.85,0l88.54,236.11L259.32,0h51.16V281H275.06V47.22h-.78L186.52,281H154.65L66.9,47.22h-.79V281H30.69V0Z"/><path d="M556,280.18q-8.67,5.11-24,5.12-13,0-20.66-7.28t-7.67-23.81Q489.91,270.74,471.62,278a110.76,110.76,0,0,1-65.72,4.13,60.84,60.84,0,0,1-21.44-9.84,47.11,47.11,0,0,1-14.37-17.51q-5.31-10.81-5.31-26.17,0-17.31,5.9-28.33a51.58,51.58,0,0,1,15.55-17.91,71.6,71.6,0,0,1,22-10.43q12.4-3.54,25.38-5.9,13.77-2.75,26.17-4.13A146.44,146.44,0,0,0,481.65,158q9.45-2.56,15-7.48t5.51-14.37q0-11-4.14-17.7a28.27,28.27,0,0,0-10.62-10.23,43.15,43.15,0,0,0-14.56-4.73,111,111,0,0,0-15.94-1.18q-21.24,0-35.41,8.07t-15.35,30.5H372.65q.78-18.9,7.87-31.88a59.73,59.73,0,0,1,18.89-21,79.36,79.36,0,0,1,26.95-11.61,142.42,142.42,0,0,1,32.47-3.54,190.7,190.7,0,0,1,27.35,2,71.57,71.57,0,0,1,24.59,8A47.1,47.1,0,0,1,528.48,99.9q6.69,11,6.69,28.66V233q0,11.79,1.38,17.28t9.24,5.49A40.57,40.57,0,0,0,556,254.21ZM501.72,175.9q-6.3,4.71-16.53,6.86t-21.44,3.52q-11.22,1.36-22.63,3.13a83.67,83.67,0,0,0-20.46,5.68,37.13,37.13,0,0,0-14.76,11.16q-5.7,7.25-5.7,19.77a27,27,0,0,0,3.34,13.91,27.87,27.87,0,0,0,8.66,9.2,36.3,36.3,0,0,0,12.39,5.09,68.84,68.84,0,0,0,15,1.56q16.53,0,28.33-4.5a59.81,59.81,0,0,0,19.28-11.35,44.89,44.89,0,0,0,11-14.88A37.5,37.5,0,0,0,501.72,210Z"/><path d="M682.73,77.52V107H642.2V233.35a36.8,36.8,0,0,0,1,9.45,9.73,9.73,0,0,0,3.74,5.51,16.5,16.5,0,0,0,7.68,2.55,109.84,109.84,0,0,0,12.79.59h15.34V281H657.15a120.14,120.14,0,0,1-22.23-1.77q-9.25-1.77-14.95-6.5t-8.46-13.38q-2.76-8.64-2.76-22.82V107H574.12V77.52h34.63v-61H642.2v61Z"/><path d="M763.79,0V166.46l92.87-88.94h44.86l-80.67,74L907.42,281h-42.5L795.27,174.72l-31.48,29.12V281H730.34V0Z"/><path d="M1121.49,280.18q-8.65,5.11-24,5.12-13,0-20.66-7.28t-7.68-23.81q-13.77,16.53-32.07,23.81a110.73,110.73,0,0,1-65.71,4.13,60.8,60.8,0,0,1-21.45-9.84,47.08,47.08,0,0,1-14.36-17.51q-5.31-10.81-5.32-26.17,0-17.31,5.91-28.33a51.56,51.56,0,0,1,15.54-17.91,71.66,71.66,0,0,1,22-10.43q12.39-3.54,25.38-5.9,13.77-2.75,26.17-4.13a146.91,146.91,0,0,0,21.84-3.93q9.44-2.56,15-7.48t5.51-14.37q0-11-4.13-17.7a28.37,28.37,0,0,0-10.63-10.23,43,43,0,0,0-14.56-4.73,111,111,0,0,0-15.93-1.18q-21.26,0-35.42,8.07t-15.35,30.5H938.12Q938.9,122,946,109a59.7,59.7,0,0,1,18.88-21,79.41,79.41,0,0,1,27-11.61,142.34,142.34,0,0,1,32.46-3.54,190.7,190.7,0,0,1,27.35,2,71.62,71.62,0,0,1,24.6,8A47.17,47.17,0,0,1,1094,99.9q6.67,11,6.68,28.66V233q0,11.79,1.38,17.28t9.25,5.49a40.5,40.5,0,0,0,10.23-1.57Zm-54.3-104.28q-6.3,4.71-16.53,6.86t-21.45,3.52q-11.21,1.36-22.62,3.13a83.76,83.76,0,0,0-20.47,5.68,37.1,37.1,0,0,0-14.75,11.16q-5.72,7.25-5.71,19.77A26.89,26.89,0,0,0,969,239.93a27.74,27.74,0,0,0,8.65,9.2,36.35,36.35,0,0,0,12.4,5.09,68.68,68.68,0,0,0,15,1.56q16.53,0,28.33-4.5a59.87,59.87,0,0,0,19.29-11.35,44.86,44.86,0,0,0,11-14.88,37.36,37.36,0,0,0,3.55-15.08Z"/><path d="M1386.71,0q9.06,0,19.48.2t20.66,1.18a159.18,159.18,0,0,1,19.09,3,48.17,48.17,0,0,1,15.15,5.9,73.23,73.23,0,0,1,23.41,22.83q9.64,14.55,9.64,35.8,0,22.44-10.82,38.77t-30.89,24.2v.78q26,5.52,39.74,23.61T1506,200.3a83.85,83.85,0,0,1-5.51,29.9A75.13,75.13,0,0,1,1484.11,256a81.68,81.68,0,0,1-26.76,18.1q-15.94,6.89-36.8,6.89H1284.79V0Zm10.23,120.81q31.88,0,45.85-11.22t14-33.64q0-15-4.72-23.61a33.61,33.61,0,0,0-13-13.38,51.06,51.06,0,0,0-19.09-6.1,182.16,182.16,0,0,0-23-1.38h-74.76v89.33Zm18.89,128.68q24.8,0,38.76-13.38t14-37q0-13.77-5.11-22.83a39.71,39.71,0,0,0-13.58-14.36,57.11,57.11,0,0,0-19.48-7.48,118.39,118.39,0,0,0-22.82-2.16h-85.39v97.2Z"/><path d="M1552.77,137.53a95,95,0,0,1,18.89-33.84,89.12,89.12,0,0,1,31.09-22.63q18.49-8.27,42.5-8.26,24.39,0,42.7,8.26a89.65,89.65,0,0,1,30.89,22.63,95,95,0,0,1,18.88,33.84,135.46,135.46,0,0,1,6.3,41.91,133.55,133.55,0,0,1-6.3,41.71,95.08,95.08,0,0,1-18.88,33.65A87.4,87.4,0,0,1,1688,277.23q-18.3,8.06-42.7,8.07-24,0-42.5-8.07a86.92,86.92,0,0,1-31.09-22.43,95.1,95.1,0,0,1-18.89-33.65,133.55,133.55,0,0,1-6.29-41.71A135.46,135.46,0,0,1,1552.77,137.53Zm34,74.77a68.66,68.66,0,0,0,13.58,24,58.65,58.65,0,0,0,20.27,14.76,61.61,61.61,0,0,0,49.18,0,58.74,58.74,0,0,0,20.27-14.76,68.82,68.82,0,0,0,13.58-24q4.9-14.36,4.91-32.86t-4.91-32.86a71.18,71.18,0,0,0-13.58-24.2,57.9,57.9,0,0,0-20.27-14.95,61.61,61.61,0,0,0-49.18,0,57.81,57.81,0,0,0-20.27,14.95,71,71,0,0,0-13.58,24.2q-4.92,14.37-4.92,32.86T1586.81,212.3Z"/><path d="M1817.6,235.52a35.67,35.67,0,0,0,12.4,12.2,55.87,55.87,0,0,0,17.31,6.49,99.29,99.29,0,0,0,19.88,2,123.57,123.57,0,0,0,16.52-1.18,60.77,60.77,0,0,0,15.94-4.33,29.94,29.94,0,0,0,12-9.25q4.72-6.1,4.73-15.54,0-13-9.84-19.68t-24.6-10.82q-14.75-4.14-32.07-7.48a165.33,165.33,0,0,1-32.07-9.44,66.29,66.29,0,0,1-24.59-17.12q-9.84-11-9.84-30.69,0-15.36,6.88-26.37A56.28,56.28,0,0,1,1808,86.38a81.57,81.57,0,0,1,24.4-10.24,112.81,112.81,0,0,1,27-3.34,160.46,160.46,0,0,1,31.87,3A74,74,0,0,1,1917,86a53,53,0,0,1,17.9,19.68q6.69,12.39,7.87,30.89h-33.45q-.8-9.84-5.11-16.33a33.6,33.6,0,0,0-11-10.43,50.25,50.25,0,0,0-14.76-5.71,76,76,0,0,0-16.33-1.77,100.42,100.42,0,0,0-15.15,1.18,50.93,50.93,0,0,0-14,4.14,28,28,0,0,0-10.23,7.87q-3.95,4.92-3.94,12.78a18.82,18.82,0,0,0,6.1,14.37,48.75,48.75,0,0,0,15.55,9.44,134.63,134.63,0,0,0,21.25,6.3q11.8,2.56,23.61,5.31a253.33,253.33,0,0,1,24.59,6.69,80.46,80.46,0,0,1,21.25,10.43,50.94,50.94,0,0,1,14.95,16.33q5.7,9.84,5.71,24.4,0,18.49-7.67,30.69a60,60,0,0,1-20.07,19.68,83.81,83.81,0,0,1-27.94,10.42,165.16,165.16,0,0,1-30.89,3,142.62,142.62,0,0,1-32.27-3.55,79.08,79.08,0,0,1-27.15-11.6,59.19,59.19,0,0,1-18.89-21.25q-7.08-13.18-7.87-32.08h33.45Q1812.88,227.84,1817.6,235.52Z"/><path d="M2032.85,0V166.46l92.87-88.94h44.86l-80.67,74L2176.49,281H2134l-69.65-106.25-31.49,29.12V281h-33.44V0Z"/><path d="M2390.56,280.18q-8.67,5.11-24,5.12-13,0-20.66-7.28t-7.67-23.81q-13.78,16.53-32.07,23.81a110.76,110.76,0,0,1-65.72,4.13,61,61,0,0,1-21.45-9.84,47.18,47.18,0,0,1-14.36-17.51q-5.31-10.81-5.31-26.17,0-17.31,5.9-28.33a51.58,51.58,0,0,1,15.55-17.91,71.6,71.6,0,0,1,22-10.43q12.4-3.54,25.38-5.9,13.77-2.75,26.17-4.13a146.44,146.44,0,0,0,21.84-3.93q9.45-2.56,15-7.48t5.5-14.37q0-11-4.13-17.7a28.27,28.27,0,0,0-10.62-10.23,43.15,43.15,0,0,0-14.56-4.73,111,111,0,0,0-15.94-1.18q-21.26,0-35.42,8.07t-15.34,30.5h-33.45q.78-18.9,7.87-31.88a59.73,59.73,0,0,1,18.89-21,79.36,79.36,0,0,1,26.95-11.61,142.42,142.42,0,0,1,32.47-3.54,190.7,190.7,0,0,1,27.35,2,71.57,71.57,0,0,1,24.59,8A47.1,47.1,0,0,1,2363,99.9q6.69,11,6.69,28.66V233q0,11.79,1.38,17.28t9.24,5.49a40.57,40.57,0,0,0,10.24-1.57ZM2336.25,175.9q-6.3,4.71-16.53,6.86t-21.44,3.52q-11.22,1.36-22.63,3.13a83.67,83.67,0,0,0-20.46,5.68,37.13,37.13,0,0,0-14.76,11.16q-5.71,7.25-5.71,19.77a27,27,0,0,0,3.35,13.91,27.87,27.87,0,0,0,8.66,9.2,36.3,36.3,0,0,0,12.39,5.09,68.78,68.78,0,0,0,15,1.56q16.52,0,28.33-4.5a59.81,59.81,0,0,0,19.28-11.35,44.89,44.89,0,0,0,11-14.88,37.5,37.5,0,0,0,3.54-15.08Z"/><path d="M2654.6,107H2539.69V77.52h158.19v22.83l-124.35,151.1h129.86V281H2531.82V255.39Z"/><path d="M0,359.46V328H224.7v31.48H131V609H93.66V359.46Z"/><path d="M404.13,544Q399.8,564.09,391,578.07a69.81,69.81,0,0,1-24.59,23.09A143.77,143.77,0,0,0,343.73,617a79.87,79.87,0,0,0-13.18,14.42,42.71,42.71,0,0,0-6.3,12.85,42,42,0,0,0-1.57,10.67,19.92,19.92,0,0,0,3.73,11.66q3.73,5.32,12.79,5.34a63,63,0,0,0,13.19-1.58A44.33,44.33,0,0,0,364,666.4l.79,15a33.46,33.46,0,0,1-14.56,7.48,71.68,71.68,0,0,1-18.1,2.36q-16.92,0-26.56-7.87t-9.64-21.64q0-13.78,9.44-25.58t28.33-24a116.18,116.18,0,0,1-16.52,1.18q-24.41,0-42.31-7.87a83.28,83.28,0,0,1-30.1-22,93.73,93.73,0,0,1-18.3-33.84,162.8,162.8,0,0,1-6.88-42.9,123,123,0,0,1,7.08-42.3,101.1,101.1,0,0,1,19.87-33.65,90.24,90.24,0,0,1,30.3-22,92.44,92.44,0,0,1,38.37-7.87q27.15,0,45.06,11.21A89.27,89.27,0,0,1,389,440.52a113.08,113.08,0,0,1,15,37.78,162.44,162.44,0,0,1,3.34,39H255a79.93,79.93,0,0,0,3.15,25.23,57,57,0,0,0,11.41,21.13,56.31,56.31,0,0,0,20.07,14.67q12.19,5.48,28.73,5.47,21.24,0,34.82-9.84T371.08,544Zm-32.27-56.28a68.28,68.28,0,0,0-5.31-22.43A57.25,57.25,0,0,0,354.35,447a57.85,57.85,0,0,0-18.1-12.2,57.18,57.18,0,0,0-23-4.53,58.15,58.15,0,0,0-23.41,4.53,54.1,54.1,0,0,0-17.91,12.39,59.33,59.33,0,0,0-11.8,18.3A69.47,69.47,0,0,0,255,487.74Z"/><path d="M543.82,440.92q-12.6-10.64-33.84-10.63-18.11,0-30.3,6.69a54.16,54.16,0,0,0-19.48,17.71,74.47,74.47,0,0,0-10.43,25.38,138.34,138.34,0,0,0-3.14,29.71A113.2,113.2,0,0,0,450,537.33a73.72,73.72,0,0,0,10.43,23.8,52.75,52.75,0,0,0,18.49,16.73q11.42,6.3,27.16,6.29,24.78,0,38.76-13t17.12-36.6h34.23q-5.52,37.78-28.14,58.24t-61.58,20.46q-23.22,0-41.12-7.47a79.69,79.69,0,0,1-29.91-21.25,91.76,91.76,0,0,1-18.1-32.86,136.94,136.94,0,0,1-6.1-41.91,149.58,149.58,0,0,1,5.9-42.7A98.66,98.66,0,0,1,435,432.46a84,84,0,0,1,30.1-23.22q18.09-8.46,42.11-8.46a123.13,123.13,0,0,1,32.46,4.13,79,79,0,0,1,26.76,12.79,69.87,69.87,0,0,1,19.09,21.84Q593,452.73,595,470.82H560.35Q556.42,451.55,543.82,440.92Z"/><path d="M720.11,435H605.21V405.5H763.4v22.82L639.05,579.43H768.91V609H597.34V583.37Z"/><path d="M778.35,465.51a94.76,94.76,0,0,1,18.89-33.84A88.81,88.81,0,0,1,828.33,409q18.48-8.27,42.5-8.26,24.39,0,42.69,8.26a89.42,89.42,0,0,1,30.89,22.63,95.06,95.06,0,0,1,18.89,33.84,135.76,135.76,0,0,1,6.3,41.91,133.84,133.84,0,0,1-6.3,41.71,95.35,95.35,0,0,1-18.89,33.65,87.31,87.31,0,0,1-30.89,22.43q-18.3,8.06-42.69,8.06-24,0-42.5-8.06a86.74,86.74,0,0,1-31.09-22.43,95,95,0,0,1-18.89-33.65,133.55,133.55,0,0,1-6.3-41.71A135.46,135.46,0,0,1,778.35,465.51Zm34,74.77a68.64,68.64,0,0,0,13.57,24A58.87,58.87,0,0,0,846.23,579a61.74,61.74,0,0,0,49.19,0,59,59,0,0,0,20.27-14.76,68.8,68.8,0,0,0,13.57-24q4.92-14.37,4.92-32.86t-4.92-32.86a71.16,71.16,0,0,0-13.57-24.2,58,58,0,0,0-20.27-14.95,61.63,61.63,0,0,0-49.19,0A57.9,57.9,0,0,0,826,450.36a71,71,0,0,0-13.57,24.2q-4.92,14.37-4.92,32.86T812.39,540.28Z"/><path d="M1155.33,609,1114,447.21h-.79L1072.3,609h-36.2L970.77,405.5h37l46,166.46h.79l40.93-166.46h36.59L1174.61,572h.79l45.65-166.46h34.63L1190.75,609Z"/><path d="M1448.1,608.16c-1.57.79-3.15,1.51-4.72,2.16a40.3,40.3,0,0,1-5.51,1.77,64.53,64.53,0,0,0-15.74,6.89,69.82,69.82,0,0,0-13.38,10.43,50,50,0,0,0-9.25,12.39,28.5,28.5,0,0,0-3.34,13.19,19.68,19.68,0,0,0,3.74,11.6q3.74,5.32,12.79,5.32a63,63,0,0,0,13.18-1.58,44.41,44.41,0,0,0,11.61-3.93l.78,15a33.35,33.35,0,0,1-14.56,7.48,71.62,71.62,0,0,1-18.1,2.36q-16.92,0-26.56-7.87t-9.64-21.64q0-14.56,12-27.94a105.33,105.33,0,0,1,30.1-22.83q-15.74-5.5-15.74-28.72Q1382,598.72,1363.69,606a110.86,110.86,0,0,1-65.71,4.14,60.8,60.8,0,0,1-21.45-9.84,47.08,47.08,0,0,1-14.36-17.51q-5.31-10.83-5.32-26.17,0-17.31,5.91-28.33a51.38,51.38,0,0,1,15.54-17.91,71.2,71.2,0,0,1,22-10.43q12.39-3.54,25.38-5.9,13.77-2.75,26.17-4.13a145.55,145.55,0,0,0,21.84-3.94q9.43-2.55,15-7.47t5.51-14.37q0-11-4.13-17.7a28.39,28.39,0,0,0-10.63-10.24,43.21,43.21,0,0,0-14.56-4.72,109.53,109.53,0,0,0-15.93-1.18q-21.26,0-35.42,8.07t-15.35,30.5h-33.44q.78-18.9,7.87-31.88a59.61,59.61,0,0,1,18.88-21.05,79.21,79.21,0,0,1,27-11.61,142.4,142.4,0,0,1,32.46-3.54,190.7,190.7,0,0,1,27.35,2,71.63,71.63,0,0,1,24.6,8.06,47.35,47.35,0,0,1,17.71,17.12q6.68,11,6.69,28.73V561.33q0,11.8,1.37,17.31t9.25,5.51a33.14,33.14,0,0,0,10.23-2Zm-54.3-104.28q-6.3,4.72-16.53,6.88t-21.45,3.55q-11.21,1.38-22.62,3.14a83.75,83.75,0,0,0-20.47,5.71A37.21,37.21,0,0,0,1298,534.38q-5.71,7.27-5.71,19.87a27.09,27.09,0,0,0,3.35,14,27.91,27.91,0,0,0,8.65,9.25,36.18,36.18,0,0,0,12.4,5.11,68.68,68.68,0,0,0,14.95,1.57q16.53,0,28.34-4.52a59.54,59.54,0,0,0,19.28-11.41,45,45,0,0,0,11-15,37.63,37.63,0,0,0,3.55-15.15Z"/><path d="M1672.4,328l109.79,281h-41.32l-30.7-84.61H1591.33L1559.85,609h-38.17l109.4-281Zm26,164.88-46.83-131h-.79l-47.61,131Z"/><path d="M1921.49,609V576.68h-.79q-10.62,18.89-27.15,27.74t-39,8.85q-20.07,0-33.45-5.31a53.3,53.3,0,0,1-21.64-15.15,56.94,56.94,0,0,1-11.61-23.41,125.94,125.94,0,0,1-3.34-30.11V405.5H1818V543.23q0,18.88,11,29.91t30.3,11q15.36,0,26.57-4.72a49.82,49.82,0,0,0,18.69-13.38,57.53,57.53,0,0,0,11.21-20.26,82.48,82.48,0,0,0,3.74-25.38V405.5H1953V609Z"/><path d="M2014,405.5v42.89h.79q12.2-24.78,29.91-36.59t44.86-11v35.41q-20.07,0-34.24,5.51a54,54,0,0,0-22.82,16.14,66.75,66.75,0,0,0-12.59,25.77q-3.94,15.15-3.94,34.83V609h-33.45V405.5Z"/><path d="M2232,596q-22.83,17.32-57.45,17.31-24.41,0-42.31-7.87a83.28,83.28,0,0,1-30.1-22,93.73,93.73,0,0,1-18.3-33.84,162.8,162.8,0,0,1-6.88-42.9,122.53,122.53,0,0,1,7.08-42.5,101.58,101.58,0,0,1,19.87-33.45,90.24,90.24,0,0,1,30.3-22,92.44,92.44,0,0,1,38.37-7.87q27.15,0,45.06,11.21a89.27,89.27,0,0,1,28.72,28.53,113.08,113.08,0,0,1,15,37.78,162.44,162.44,0,0,1,3.34,39H2112.34a80.84,80.84,0,0,0,3.15,25.38,57.39,57.39,0,0,0,11.41,21.25A56.25,56.25,0,0,0,2147,578.64q12.2,5.52,28.73,5.51,21.24,0,34.82-9.83t17.91-29.91h33.05Q2254.79,578.64,2232,596Zm-8.07-130.65A57.25,57.25,0,0,0,2211.7,447a57.85,57.85,0,0,0-18.1-12.2,57.18,57.18,0,0,0-23-4.53,58.15,58.15,0,0,0-23.41,4.53,54.1,54.1,0,0,0-17.91,12.39,59.33,59.33,0,0,0-11.8,18.3,69.73,69.73,0,0,0-5.12,22.23h116.87A68.28,68.28,0,0,0,2223.9,465.31Z"/><path d="M2274.86,465.51a94.76,94.76,0,0,1,18.89-33.84A88.87,88.87,0,0,1,2324.83,409q18.49-8.27,42.5-8.26,24.4,0,42.7,8.26a89.42,89.42,0,0,1,30.89,22.63,95.06,95.06,0,0,1,18.89,33.84,135.76,135.76,0,0,1,6.29,41.91,133.84,133.84,0,0,1-6.29,41.71,95.35,95.35,0,0,1-18.89,33.65A87.31,87.31,0,0,1,2410,605.21q-18.3,8.06-42.7,8.06-24,0-42.5-8.06a86.79,86.79,0,0,1-31.08-22.43,95,95,0,0,1-18.89-33.65,133.55,133.55,0,0,1-6.3-41.71A135.46,135.46,0,0,1,2274.86,465.51Zm34,74.77a68.49,68.49,0,0,0,13.57,24A58.87,58.87,0,0,0,2342.74,579a61.74,61.74,0,0,0,49.19,0,58.93,58.93,0,0,0,20.26-14.76,68.66,68.66,0,0,0,13.58-24q4.92-14.37,4.92-32.86t-4.92-32.86a71,71,0,0,0-13.58-24.2,58,58,0,0,0-20.26-14.95,61.63,61.63,0,0,0-49.19,0,57.9,57.9,0,0,0-20.27,14.95,70.83,70.83,0,0,0-13.57,24.2q-4.93,14.37-4.92,32.86T2308.9,540.28Z"/><path d="M2521.19,328V609h-33.45V328Z"/><path d="M2733.68,608.16c-1.57.79-3.15,1.51-4.72,2.16a40.3,40.3,0,0,1-5.51,1.77,64.53,64.53,0,0,0-15.74,6.89,69.82,69.82,0,0,0-13.38,10.43,50,50,0,0,0-9.25,12.39,28.5,28.5,0,0,0-3.34,13.19,19.68,19.68,0,0,0,3.74,11.6q3.73,5.32,12.79,5.32a63,63,0,0,0,13.18-1.58,44.41,44.41,0,0,0,11.61-3.93l.78,15a33.36,33.36,0,0,1-14.55,7.48,71.76,71.76,0,0,1-18.11,2.36q-16.92,0-26.56-7.87T2655,661.68q0-14.56,12-27.94a105.24,105.24,0,0,1,30.11-22.83q-15.75-5.5-15.74-28.72-13.79,16.53-32.08,23.8a110.86,110.86,0,0,1-65.71,4.14,60.8,60.8,0,0,1-21.45-9.84,47.08,47.08,0,0,1-14.36-17.51q-5.31-10.83-5.31-26.17,0-17.31,5.9-28.33a51.38,51.38,0,0,1,15.54-17.91,71.31,71.31,0,0,1,22-10.43q12.39-3.54,25.38-5.9,13.77-2.75,26.17-4.13a145.55,145.55,0,0,0,21.84-3.94q9.45-2.55,15-7.47t5.51-14.37q0-11-4.13-17.7A28.39,28.39,0,0,0,2665,436.19a43.23,43.23,0,0,0-14.55-4.72,109.66,109.66,0,0,0-15.94-1.18q-21.26,0-35.42,8.07t-15.35,30.5h-33.44q.78-18.9,7.87-31.88a59.55,59.55,0,0,1,18.89-21.05A79.16,79.16,0,0,1,2604,404.32a142.42,142.42,0,0,1,32.47-3.54,190.57,190.57,0,0,1,27.34,2,71.63,71.63,0,0,1,24.6,8.06,47.35,47.35,0,0,1,17.71,17.12q6.68,11,6.69,28.73V561.33q0,11.8,1.37,17.31t9.25,5.51a33.14,33.14,0,0,0,10.23-2Zm-54.3-104.28q-6.3,4.72-16.53,6.88t-21.45,3.55q-11.21,1.38-22.62,3.14a83.87,83.87,0,0,0-20.47,5.71,37.21,37.21,0,0,0-14.75,11.22q-5.71,7.27-5.71,19.87a27.09,27.09,0,0,0,3.35,14,27.91,27.91,0,0,0,8.65,9.25,36.26,36.26,0,0,0,12.4,5.11,68.68,68.68,0,0,0,14.95,1.57q16.53,0,28.34-4.52a59.54,59.54,0,0,0,19.28-11.41,45.06,45.06,0,0,0,11-15,37.77,37.77,0,0,0,3.54-15.15Z"/></g></g></svg>