<svg xmlns="http://www.w3.org/2000/svg" viewBox="0 0 5344.2 363.21"><g id="Layer_2" data-name="Layer 2"><g id="Layer_1-2" data-name="Layer 1"><path d="M51.16,0,139.7,236.11,228.63,0h51.16V281H244.37V47.22h-.79L155.83,281H124L36.2,47.22h-.78V281H0V0Z"/><path d="M504.08,280.18q-8.65,5.11-24,5.12-13,0-20.66-7.28t-7.67-23.81Q438,270.74,419.68,278A110.76,110.76,0,0,1,354,282.15a60.89,60.89,0,0,1-21.45-9.84,47.08,47.08,0,0,1-14.36-17.51q-5.31-10.81-5.31-26.17,0-17.31,5.9-28.33a51.56,51.56,0,0,1,15.54-17.91,71.77,71.77,0,0,1,22-10.43q12.39-3.54,25.38-5.9,13.77-2.75,26.17-4.13A146.91,146.91,0,0,0,429.71,158q9.45-2.56,15-7.48t5.51-14.37q0-11-4.13-17.7a28.27,28.27,0,0,0-10.62-10.23,43.15,43.15,0,0,0-14.56-4.73,111.09,111.09,0,0,0-15.94-1.18q-21.26,0-35.42,8.07t-15.34,30.5H320.71q.78-18.9,7.87-31.88a59.73,59.73,0,0,1,18.89-21,79.36,79.36,0,0,1,26.95-11.61,142.42,142.42,0,0,1,32.47-3.54,190.81,190.81,0,0,1,27.35,2,71.57,71.57,0,0,1,24.59,8A47.17,47.17,0,0,1,476.54,99.9q6.69,11,6.69,28.66V233q0,11.79,1.38,17.28t9.24,5.49a40.44,40.44,0,0,0,10.23-1.57ZM449.78,175.9q-6.3,4.71-16.53,6.86t-21.44,3.52q-11.22,1.36-22.63,3.13a83.67,83.67,0,0,0-20.46,5.68A37.13,37.13,0,0,0,354,206.25q-5.71,7.25-5.71,19.77a27,27,0,0,0,3.35,13.91,27.67,27.67,0,0,0,8.66,9.2,36.3,36.3,0,0,0,12.39,5.09,68.68,68.68,0,0,0,15,1.56q16.53,0,28.34-4.5a59.81,59.81,0,0,0,19.28-11.35,44.89,44.89,0,0,0,11-14.88A37.5,37.5,0,0,0,449.78,210Z"/><path d="M609.54,77.52V107H569V233.35a36.36,36.36,0,0,0,1,9.45,9.68,9.68,0,0,0,3.74,5.51,16.46,16.46,0,0,0,7.67,2.55,110.08,110.08,0,0,0,12.79.59h15.35V281H584a120.06,120.06,0,0,1-22.23-1.77q-9.26-1.77-15-6.5t-8.46-13.38q-2.74-8.64-2.75-22.82V107H500.93V77.52h34.63v-61H569v61Z"/><path d="M669.35,0V166.46l92.87-88.94h44.86l-80.67,74L813,281h-42.5L700.83,174.72l-31.48,29.12V281H635.9V0Z"/><path d="M1005.8,280.18q-8.65,5.11-24,5.12-13,0-20.66-7.28t-7.68-23.81Q939.69,270.74,921.39,278a110.76,110.76,0,0,1-65.72,4.13,60.84,60.84,0,0,1-21.44-9.84,47.08,47.08,0,0,1-14.36-17.51q-5.32-10.81-5.32-26.17,0-17.31,5.91-28.33A51.56,51.56,0,0,1,836,182.39,71.55,71.55,0,0,1,858,172q12.39-3.54,25.38-5.9,13.77-2.75,26.17-4.13A146.91,146.91,0,0,0,931.43,158q9.44-2.56,15-7.48t5.51-14.37q0-11-4.13-17.7a28.37,28.37,0,0,0-10.63-10.23,43.07,43.07,0,0,0-14.56-4.73,111,111,0,0,0-15.94-1.18q-21.24,0-35.41,8.07t-15.35,30.5H822.42q.8-18.9,7.87-31.88a59.82,59.82,0,0,1,18.89-21,79.41,79.41,0,0,1,27-11.61A142.34,142.34,0,0,1,908.6,72.8a190.7,190.7,0,0,1,27.35,2,71.62,71.62,0,0,1,24.6,8,47.07,47.07,0,0,1,17.7,17.08q6.69,11,6.69,28.66V233q0,11.79,1.38,17.28t9.25,5.49a40.57,40.57,0,0,0,10.23-1.57ZM951.5,175.9q-6.3,4.71-16.53,6.86t-21.45,3.52q-11.22,1.36-22.63,3.13a83.67,83.67,0,0,0-20.46,5.68,37.13,37.13,0,0,0-14.76,11.16Q850,213.5,850,226a27,27,0,0,0,3.34,13.91,27.87,27.87,0,0,0,8.66,9.2,36.27,36.27,0,0,0,12.4,5.09,68.68,68.68,0,0,0,15,1.56q16.53,0,28.33-4.5a59.87,59.87,0,0,0,19.29-11.35,44.86,44.86,0,0,0,11-14.88A37.53,37.53,0,0,0,951.5,210Z"/><path d="M1228.52,0q9,0,19.48.2t20.66,1.18a159.18,159.18,0,0,1,19.09,3,48.17,48.17,0,0,1,15.15,5.9,73.23,73.23,0,0,1,23.41,22.83q9.64,14.55,9.64,35.8,0,22.44-10.82,38.77t-30.89,24.2v.78q26,5.52,39.74,23.61t13.78,44.08a83.85,83.85,0,0,1-5.51,29.9A75.13,75.13,0,0,1,1325.92,256a81.68,81.68,0,0,1-26.76,18.1q-15.95,6.89-36.8,6.89H1126.6V0Zm10.23,120.81q31.88,0,45.85-11.22t14-33.64q0-15-4.72-23.61a33.61,33.61,0,0,0-13-13.38,51.06,51.06,0,0,0-19.09-6.1,182.16,182.16,0,0,0-23-1.38H1164v89.33Zm18.89,128.68q24.79,0,38.76-13.38t14-37q0-13.77-5.11-22.83a39.79,39.79,0,0,0-13.58-14.36,57.11,57.11,0,0,0-19.48-7.48,118.39,118.39,0,0,0-22.82-2.16H1164v97.2Z"/><path d="M1373.33,137.53a95,95,0,0,1,18.89-33.84,89.12,89.12,0,0,1,31.09-22.63q18.5-8.27,42.5-8.26,24.39,0,42.69,8.26a89.59,89.59,0,0,1,30.9,22.63,95.13,95.13,0,0,1,18.88,33.84,135.46,135.46,0,0,1,6.3,41.91,133.55,133.55,0,0,1-6.3,41.71,95.24,95.24,0,0,1-18.88,33.65,87.34,87.34,0,0,1-30.9,22.43q-18.29,8.06-42.69,8.07-24,0-42.5-8.07a86.92,86.92,0,0,1-31.09-22.43,95.1,95.1,0,0,1-18.89-33.65,133.55,133.55,0,0,1-6.29-41.71A135.46,135.46,0,0,1,1373.33,137.53Zm34,74.77a68.5,68.5,0,0,0,13.58,24,58.71,58.71,0,0,0,20.26,14.76,61.63,61.63,0,0,0,49.19,0,58.74,58.74,0,0,0,20.27-14.76,68.82,68.82,0,0,0,13.58-24q4.9-14.36,4.91-32.86t-4.91-32.86a71.18,71.18,0,0,0-13.58-24.2,57.9,57.9,0,0,0-20.27-14.95,61.63,61.63,0,0,0-49.19,0A57.86,57.86,0,0,0,1421,122.38a70.85,70.85,0,0,0-13.58,24.2q-4.92,14.37-4.92,32.86T1407.37,212.3Z"/><path d="M1616.91,235.52a35.67,35.67,0,0,0,12.4,12.2,55.78,55.78,0,0,0,17.31,6.49,99.29,99.29,0,0,0,19.88,2A123.57,123.57,0,0,0,1683,255a60.77,60.77,0,0,0,15.94-4.33,29.94,29.94,0,0,0,12-9.25q4.72-6.1,4.72-15.54,0-13-9.83-19.68t-24.6-10.82q-14.74-4.14-32.07-7.48a165.33,165.33,0,0,1-32.07-9.44,66.29,66.29,0,0,1-24.59-17.12q-9.84-11-9.84-30.69,0-15.36,6.88-26.37a56.28,56.28,0,0,1,17.71-17.9,81.57,81.57,0,0,1,24.4-10.24,112.81,112.81,0,0,1,27-3.34,160.46,160.46,0,0,1,31.87,3A74,74,0,0,1,1716.28,86a53,53,0,0,1,17.9,19.68q6.69,12.39,7.87,30.89H1708.6q-.8-9.84-5.11-16.33a33.6,33.6,0,0,0-11-10.43,50.36,50.36,0,0,0-14.76-5.71,76,76,0,0,0-16.33-1.77,100.42,100.42,0,0,0-15.15,1.18,50.93,50.93,0,0,0-14,4.14A28,28,0,0,0,1622,115.5q-3.94,4.92-3.94,12.78a18.82,18.82,0,0,0,6.1,14.37,48.75,48.75,0,0,0,15.55,9.44,134.63,134.63,0,0,0,21.25,6.3q11.8,2.56,23.61,5.31a253.33,253.33,0,0,1,24.59,6.69,80.46,80.46,0,0,1,21.25,10.43,50.94,50.94,0,0,1,15,16.33q5.7,9.84,5.71,24.4,0,18.49-7.67,30.69a60,60,0,0,1-20.07,19.68,83.89,83.89,0,0,1-27.94,10.42,165.16,165.16,0,0,1-30.89,3,142.62,142.62,0,0,1-32.27-3.55,79.08,79.08,0,0,1-27.15-11.6,59.19,59.19,0,0,1-18.89-21.25q-7.08-13.18-7.87-32.08h33.45Q1612.19,227.84,1616.91,235.52Z"/><path d="M1810.91,0V166.46l92.87-88.94h44.86l-80.67,74L1954.55,281h-42.5L1842.4,174.72l-31.49,29.12V281h-33.44V0Z"/><path d="M2147.37,280.18q-8.67,5.11-24,5.12-13,0-20.66-7.28T2095,254.21Q2081.25,270.74,2063,278a110.76,110.76,0,0,1-65.72,4.13,61,61,0,0,1-21.45-9.84,47.18,47.18,0,0,1-14.36-17.51q-5.31-10.81-5.31-26.17,0-17.31,5.9-28.33a51.58,51.58,0,0,1,15.55-17.91,71.6,71.6,0,0,1,22-10.43q12.4-3.54,25.38-5.9,13.77-2.75,26.17-4.13A146.44,146.44,0,0,0,2073,158q9.45-2.56,15-7.48t5.51-14.37q0-11-4.14-17.7a28.27,28.27,0,0,0-10.62-10.23,43.15,43.15,0,0,0-14.56-4.73,111,111,0,0,0-15.94-1.18q-21.24,0-35.41,8.07t-15.35,30.5H1964q.78-18.9,7.87-31.88a59.73,59.73,0,0,1,18.89-21,79.36,79.36,0,0,1,27-11.61,142.42,142.42,0,0,1,32.47-3.54,190.7,190.7,0,0,1,27.35,2,71.57,71.57,0,0,1,24.59,8,47.1,47.1,0,0,1,17.71,17.08q6.69,11,6.69,28.66V233q0,11.79,1.38,17.28t9.24,5.49a40.57,40.57,0,0,0,10.24-1.57ZM2093.06,175.9q-6.3,4.71-16.53,6.86t-21.44,3.52q-11.22,1.36-22.63,3.13a83.67,83.67,0,0,0-20.46,5.68,37.13,37.13,0,0,0-14.76,11.16q-5.7,7.25-5.7,19.77a27,27,0,0,0,3.34,13.91,27.87,27.87,0,0,0,8.66,9.2,36.3,36.3,0,0,0,12.39,5.09,68.84,68.84,0,0,0,15,1.56q16.53,0,28.33-4.5a59.81,59.81,0,0,0,19.28-11.35,44.89,44.89,0,0,0,11-14.88,37.5,37.5,0,0,0,3.54-15.08Z"/><path d="M2368.91,107H2254V77.52h158.19v22.83l-124.35,151.1H2417.7V281H2246.13V255.39Z"/><path d="M2511.36,31.48V0h224.69V31.48H2642.4V281H2605V31.48Z"/><path d="M2922.57,216q-4.34,20.07-13.18,34.06a69.79,69.79,0,0,1-24.59,23.08A143.77,143.77,0,0,0,2862.17,289,79.56,79.56,0,0,0,2849,303.42a42.79,42.79,0,0,0-6.3,12.84,42,42,0,0,0-1.57,10.67,19.9,19.9,0,0,0,3.73,11.66q3.74,5.34,12.79,5.34a63,63,0,0,0,13.19-1.58,44.33,44.33,0,0,0,11.6-3.93l.79,14.95a33.35,33.35,0,0,1-14.56,7.48,71.68,71.68,0,0,1-18.1,2.36q-16.92,0-26.56-7.87t-9.64-21.64q0-13.79,9.44-25.58t28.33-24a117.67,117.67,0,0,1-16.52,1.18q-24.41,0-42.31-7.87a83.42,83.42,0,0,1-30.1-22,93.73,93.73,0,0,1-18.3-33.84,162.73,162.73,0,0,1-6.88-42.9,123,123,0,0,1,7.08-42.3A101.05,101.05,0,0,1,2765,102.71a90.13,90.13,0,0,1,30.3-22,92.6,92.6,0,0,1,38.37-7.87q27.15,0,45.06,11.21a89.27,89.27,0,0,1,28.72,28.53,113.08,113.08,0,0,1,15,37.78,162.48,162.48,0,0,1,3.34,39H2773.43a79.89,79.89,0,0,0,3.15,25.23A57,57,0,0,0,2788,235.64a56.31,56.31,0,0,0,20.07,14.67q12.2,5.48,28.73,5.47,21.24,0,34.82-9.84t17.91-29.9Zm-32.27-56.27a68.22,68.22,0,0,0-5.31-22.43,57.18,57.18,0,0,0-12.2-18.3,60.14,60.14,0,0,0-64.53-12.2,54.1,54.1,0,0,0-17.91,12.39,59.33,59.33,0,0,0-11.8,18.3,69.79,69.79,0,0,0-5.12,22.24Z"/><path d="M3069.35,112.94q-12.6-10.64-33.84-10.63-18.11,0-30.3,6.69a54.08,54.08,0,0,0-19.48,17.71,74.47,74.47,0,0,0-10.43,25.38,138.34,138.34,0,0,0-3.15,29.71,112.66,112.66,0,0,0,3.35,27.55,73.64,73.64,0,0,0,10.42,23.81,52.84,52.84,0,0,0,18.5,16.72q11.4,6.3,27.15,6.3,24.79,0,38.76-13t17.12-36.6h34.24q-5.52,37.78-28.14,58.24T3032,285.3q-23.22,0-41.12-7.48a79.55,79.55,0,0,1-29.9-21.25,91.78,91.78,0,0,1-18.11-32.86,136.94,136.94,0,0,1-6.1-41.91,149.11,149.11,0,0,1,5.91-42.69,98.6,98.6,0,0,1,17.9-34.63,84,84,0,0,1,30.11-23.22q18.09-8.46,42.1-8.46a123.26,123.26,0,0,1,32.47,4.13A79.25,79.25,0,0,1,3092,89.72a69.87,69.87,0,0,1,19.09,21.84q7.47,13.18,9.44,31.28h-34.62Q3081.94,123.57,3069.35,112.94Z"/><path d="M3252.72,107H3137.81V77.52H3296v22.83l-124.34,151.1h129.85V281H3129.94V255.39Z"/><path d="M3318,137.53a94.85,94.85,0,0,1,18.89-33.84A88.94,88.94,0,0,1,3368,81.06q18.48-8.27,42.5-8.26,24.39,0,42.69,8.26a89.55,89.55,0,0,1,30.89,22.63A95,95,0,0,1,3503,137.53a135.76,135.76,0,0,1,6.3,41.91,133.84,133.84,0,0,1-6.3,41.71,95.1,95.1,0,0,1-18.89,33.65,87.31,87.31,0,0,1-30.89,22.43q-18.3,8.06-42.69,8.07-24,0-42.5-8.07a86.74,86.74,0,0,1-31.09-22.43A95,95,0,0,1,3318,221.15a133.55,133.55,0,0,1-6.3-41.71A135.46,135.46,0,0,1,3318,137.53Zm34,74.77a68.5,68.5,0,0,0,13.58,24,58.61,58.61,0,0,0,20.26,14.76,61.63,61.63,0,0,0,49.19,0,58.84,58.84,0,0,0,20.27-14.76,68.8,68.8,0,0,0,13.57-24q4.92-14.36,4.92-32.86T3469,146.58a71.16,71.16,0,0,0-13.57-24.2,58,58,0,0,0-20.27-14.95,61.63,61.63,0,0,0-49.19,0,57.77,57.77,0,0,0-20.26,14.95,70.85,70.85,0,0,0-13.58,24.2q-4.92,14.37-4.92,32.86T3352.08,212.3Z"/><path d="M3702.1,281l-41.31-161.74H3660L3619.07,281h-36.2L3517.55,77.52h37l46,166.46h.79l40.92-166.46h36.6L3721.39,244h.78l45.65-166.46h34.63L3737.52,281Z"/><path d="M4002,280.18q-2.37,1.19-4.72,2.16a39.77,39.77,0,0,1-5.51,1.78A64.12,64.12,0,0,0,3976,291a69.51,69.51,0,0,0-13.38,10.43,49.74,49.74,0,0,0-9.25,12.4A28.44,28.44,0,0,0,3950,327a19.78,19.78,0,0,0,3.74,11.61q3.73,5.31,12.79,5.31a62.84,62.84,0,0,0,13.18-1.58,44.28,44.28,0,0,0,11.61-3.93l.79,14.95a33.35,33.35,0,0,1-14.56,7.48,71.68,71.68,0,0,1-18.1,2.36q-16.92,0-26.56-7.87t-9.64-21.64q0-14.56,12-27.94a105.16,105.16,0,0,1,30.1-22.82q-15.74-5.52-15.74-28.73-13.78,16.53-32.07,23.81a110.76,110.76,0,0,1-65.72,4.13,60.84,60.84,0,0,1-21.44-9.84A47.2,47.2,0,0,1,3816,254.8q-5.31-10.81-5.31-26.17,0-17.31,5.9-28.33a51.68,51.68,0,0,1,15.55-17.91,71.6,71.6,0,0,1,22-10.43q12.41-3.54,25.39-5.9,13.77-2.75,26.16-4.13a146.44,146.44,0,0,0,21.84-3.93q9.45-2.56,15-7.48t5.51-14.37q0-11-4.13-17.7a28.37,28.37,0,0,0-10.63-10.23,43.15,43.15,0,0,0-14.56-4.73,111,111,0,0,0-15.94-1.18q-21.24,0-35.41,8.07T3852,140.88h-33.45q.78-18.9,7.87-31.88a59.73,59.73,0,0,1,18.89-21,79.32,79.32,0,0,1,27-11.61,142.27,142.27,0,0,1,32.46-3.54,190.7,190.7,0,0,1,27.35,2,71.51,71.51,0,0,1,24.59,8.06A47.21,47.21,0,0,1,3974.41,100q6.69,11,6.69,28.73V233.35q0,11.81,1.38,17.32t9.25,5.51a33.24,33.24,0,0,0,10.23-2ZM3947.65,175.9q-6.3,4.72-16.52,6.89t-21.45,3.54q-11.22,1.38-22.63,3.15a83.23,83.23,0,0,0-20.46,5.7,37.27,37.27,0,0,0-14.76,11.22q-5.7,7.28-5.7,19.87a27.18,27.18,0,0,0,3.34,14,27.94,27.94,0,0,0,8.66,9.25,36.09,36.09,0,0,0,12.4,5.11,68.67,68.67,0,0,0,14.95,1.58q16.53,0,28.33-4.53a59.43,59.43,0,0,0,19.28-11.41,45,45,0,0,0,11-15,37.85,37.85,0,0,0,3.54-15.15Z"/><path d="M4240.42,0l109.79,281h-41.32l-30.69-84.61H4159.36L4127.88,281h-38.17L4199.1,0Zm26,164.88-46.83-131h-.78l-47.62,131Z"/><path d="M4496.59,281V248.7h-.78q-10.64,18.89-27.15,27.74t-39,8.86q-20.07,0-33.45-5.32a53.3,53.3,0,0,1-21.64-15.15A56.82,56.82,0,0,1,4363,241.42a125.89,125.89,0,0,1-3.35-30.1V77.52h33.45V215.25q0,18.88,11,29.91t30.3,11q15.34,0,26.56-4.73a49.56,49.56,0,0,0,18.69-13.38,57.71,57.71,0,0,0,11.22-20.26,82.48,82.48,0,0,0,3.74-25.38V77.52h33.45V281Z"/><path d="M4596.15,77.52v42.89h.79q12.2-24.78,29.91-36.59t44.86-11v35.42q-20.07,0-34.24,5.51a54,54,0,0,0-22.82,16.13,66.61,66.61,0,0,0-12.59,25.77q-3.95,15.17-3.94,34.83V281h-33.45V77.52Z"/><path d="M4821.24,268q-22.82,17.32-57.45,17.32-24.4,0-42.3-7.87a83.46,83.46,0,0,1-30.11-22,93.56,93.56,0,0,1-18.29-33.84,162.73,162.73,0,0,1-6.89-42.9,122.53,122.53,0,0,1,7.08-42.5,101.45,101.45,0,0,1,19.88-33.44,90,90,0,0,1,30.3-22,92.59,92.59,0,0,1,38.36-7.87q27.15,0,45.06,11.21a89.3,89.3,0,0,1,28.73,28.53,112.85,112.85,0,0,1,15,37.78,162,162,0,0,1,3.34,39H4701.62a80.54,80.54,0,0,0,3.14,25.38,57.19,57.19,0,0,0,11.42,21.25,56.1,56.1,0,0,0,20.07,14.76q12.18,5.51,28.72,5.51,21.26,0,34.83-9.84t17.9-29.91h33.06Q4844.06,250.66,4821.24,268Zm-8.06-130.64A57.35,57.35,0,0,0,4801,119a58.08,58.08,0,0,0-18.1-12.2,57.38,57.38,0,0,0-23-4.53,58.37,58.37,0,0,0-23.42,4.53,54.16,54.16,0,0,0-17.9,12.39,59.36,59.36,0,0,0-11.81,18.3,69.52,69.52,0,0,0-5.11,22.24h116.87A68.72,68.72,0,0,0,4813.18,137.34Z"/><path d="M4871.21,137.53a95,95,0,0,1,18.89-33.84,89.12,89.12,0,0,1,31.09-22.63q18.5-8.27,42.5-8.26,24.39,0,42.69,8.26a89.59,89.59,0,0,1,30.9,22.63,95.13,95.13,0,0,1,18.88,33.84,135.46,135.46,0,0,1,6.3,41.91,133.55,133.55,0,0,1-6.3,41.71,95.24,95.24,0,0,1-18.88,33.65,87.34,87.34,0,0,1-30.9,22.43q-18.29,8.06-42.69,8.07-24,0-42.5-8.07a86.92,86.92,0,0,1-31.09-22.43,95.1,95.1,0,0,1-18.89-33.65,133.55,133.55,0,0,1-6.29-41.71A135.46,135.46,0,0,1,4871.21,137.53Zm34,74.77a68.5,68.5,0,0,0,13.58,24,58.71,58.71,0,0,0,20.26,14.76,61.63,61.63,0,0,0,49.19,0,58.74,58.74,0,0,0,20.27-14.76,68.64,68.64,0,0,0,13.57-24q4.92-14.36,4.92-32.86t-4.92-32.86a71,71,0,0,0-13.57-24.2,57.9,57.9,0,0,0-20.27-14.95,61.63,61.63,0,0,0-49.19,0,57.86,57.86,0,0,0-20.26,14.95,70.85,70.85,0,0,0-13.58,24.2q-4.92,14.37-4.92,32.86T4905.25,212.3Z"/><path d="M5124.63,0V281h-33.45V0Z"/><path d="M5344.2,280.18q-2.35,1.19-4.72,2.16a38.9,38.9,0,0,1-5.51,1.78,64.12,64.12,0,0,0-15.74,6.88,70.13,70.13,0,0,0-13.38,10.43,49.93,49.93,0,0,0-9.24,12.4,28.32,28.32,0,0,0-3.35,13.18,19.71,19.71,0,0,0,3.74,11.61q3.73,5.31,12.79,5.31a63,63,0,0,0,13.18-1.58,44.41,44.41,0,0,0,11.61-3.93l.79,14.95a33.35,33.35,0,0,1-14.56,7.48,71.68,71.68,0,0,1-18.1,2.36q-16.94,0-26.57-7.87t-9.64-21.64q0-14.56,12-27.94a105.21,105.21,0,0,1,30.11-22.82q-15.75-5.52-15.74-28.73-13.78,16.53-32.07,23.81a110.76,110.76,0,0,1-65.72,4.13,61,61,0,0,1-21.45-9.84,47.08,47.08,0,0,1-14.36-17.51Q5153,244,5153,228.63q0-17.31,5.9-28.33a51.56,51.56,0,0,1,15.54-17.91,71.77,71.77,0,0,1,22-10.43q12.39-3.54,25.38-5.9,13.77-2.75,26.17-4.13a146.91,146.91,0,0,0,21.84-3.93q9.45-2.56,14.95-7.48t5.51-14.37q0-11-4.13-17.7a28.27,28.27,0,0,0-10.62-10.23,43.15,43.15,0,0,0-14.56-4.73,111.09,111.09,0,0,0-15.94-1.18q-21.26,0-35.42,8.07t-15.34,30.5h-33.45q.78-18.9,7.87-31.88a59.73,59.73,0,0,1,18.89-21,79.36,79.36,0,0,1,26.95-11.61A142.42,142.42,0,0,1,5247,72.8a190.81,190.81,0,0,1,27.35,2A71.58,71.58,0,0,1,5299,82.83,47.35,47.35,0,0,1,5316.66,100q6.69,11,6.69,28.73V233.35q0,11.81,1.38,17.32t9.24,5.51a33.13,33.13,0,0,0,10.23-2ZM5289.9,175.9q-6.3,4.72-16.53,6.89t-21.44,3.54q-11.22,1.38-22.63,3.15a83.23,83.23,0,0,0-20.46,5.7,37.27,37.27,0,0,0-14.76,11.22q-5.71,7.28-5.71,19.87a27.19,27.19,0,0,0,3.35,14,27.74,27.74,0,0,0,8.66,9.25,36.12,36.12,0,0,0,12.39,5.11,68.67,68.67,0,0,0,14.95,1.58q16.53,0,28.34-4.53a59.54,59.54,0,0,0,19.28-11.41,45,45,0,0,0,11-15,37.85,37.85,0,0,0,3.54-15.15Z"/></g></g></svg>