<svg xmlns="http://www.w3.org/2000/svg" viewBox="0 0 2422.42 288.44"><g id="Layer_2" data-name="Layer 2"><g id="Layer_1-2" data-name="Layer 1"><path d="M132.22,3.15q40.14,0,62.76,19.67t22.63,53.91q0,25.59-11.61,44.86T168.82,148v.79q12.18,2.35,19.87,7.87a43.15,43.15,0,0,1,12.2,13.18,60.15,60.15,0,0,1,6.69,17.12,182,182,0,0,1,3.34,19.67q.78,10.24,1.18,20.86a180.6,180.6,0,0,0,2,20.86,127.55,127.55,0,0,0,4.53,19.47,47.88,47.88,0,0,0,8.85,16.34H185.74q-3.94-4.33-5.32-11.81a120.58,120.58,0,0,1-1.77-16.72q-.39-9.26-.78-19.88a138.31,138.31,0,0,0-2.36-20.85q-1.59-10.23-3.94-19.48a45.77,45.77,0,0,0-7.48-16.14,36.93,36.93,0,0,0-13.38-11q-8.25-4.14-22-4.14H37.38v120H0V3.15Zm7.87,127.5A54,54,0,0,0,160.75,123a42.06,42.06,0,0,0,14.17-15.34q5.31-9.64,5.31-25,0-21.26-11.81-34.63T130.25,34.63H37.38v98H115.3A150.85,150.85,0,0,0,140.09,130.65Z"/><path d="M388.39,284.12V251.85h-.78Q377,270.74,360.46,279.59t-39,8.85q-20.07,0-33.45-5.31A53.3,53.3,0,0,1,266.41,268a56.82,56.82,0,0,1-11.61-23.41,125.92,125.92,0,0,1-3.35-30.11V80.67H284.9V218.4q0,18.89,11,29.91t30.3,11q15.34,0,26.56-4.72a49.67,49.67,0,0,0,18.69-13.38A57.71,57.71,0,0,0,382.69,221a82.48,82.48,0,0,0,3.74-25.38V80.67h33.45V284.12Z"/><path d="M437.19,110.18V80.67h34.24V50.37q0-24.79,14.36-37.58T527.7,0a84.71,84.71,0,0,1,10.82.79,58.21,58.21,0,0,1,10.82,2.36V32.27a41.93,41.93,0,0,0-9.44-2.17,83.8,83.8,0,0,0-9.45-.59q-12.19,0-18.89,4.73t-6.69,18.1V80.67h39.35v29.51H504.87V284.12H471.43V110.18Z"/><path d="M563.5,44.07V3.15H597V44.07ZM597,80.67V284.12H563.5V80.67Z"/><path d="M667.78,80.67v32.27h.79q20.85-37,66.1-37,20.07,0,33.45,5.51A55.06,55.06,0,0,1,789.77,96.8a57.17,57.17,0,0,1,11.61,23.42,126.37,126.37,0,0,1,3.34,30.1v133.8H771.27V146.39q0-18.9-11-29.91t-30.3-11q-15.35,0-26.56,4.72a49.78,49.78,0,0,0-18.69,13.38,57.62,57.62,0,0,0-11.22,20.27,82.49,82.49,0,0,0-3.73,25.38V284.12H636.3V80.67Z"/><path d="M1022.73,283.33q-8.67,5.1-24,5.11-13,0-20.66-7.28t-7.67-23.8q-13.78,16.53-32.07,23.8a110.9,110.9,0,0,1-65.72,4.14,61,61,0,0,1-21.45-9.84A47.18,47.18,0,0,1,836.79,258q-5.31-10.83-5.31-26.17,0-17.31,5.9-28.33a51.4,51.4,0,0,1,15.55-17.91,71.15,71.15,0,0,1,22-10.43q12.4-3.54,25.38-5.9,13.77-2.75,26.17-4.13a145.09,145.09,0,0,0,21.84-3.94q9.45-2.55,15-7.47t5.5-14.37q0-11-4.13-17.71a28.34,28.34,0,0,0-10.62-10.23,43.36,43.36,0,0,0-14.56-4.72,109.56,109.56,0,0,0-15.94-1.18q-21.25,0-35.42,8.07T872.8,144H839.35q.78-18.89,7.87-31.87A59.64,59.64,0,0,1,866.11,91.1a79.16,79.16,0,0,1,26.95-11.61A142.42,142.42,0,0,1,925.53,76a190.7,190.7,0,0,1,27.35,2,71.56,71.56,0,0,1,24.59,8A47.25,47.25,0,0,1,995.18,103q6.69,11,6.69,28.66V236.16q0,11.78,1.38,17.27t9.24,5.5a40.57,40.57,0,0,0,10.24-1.57ZM968.42,179.05q-6.3,4.69-16.53,6.85t-21.44,3.53q-11.22,1.37-22.63,3.13a83.67,83.67,0,0,0-20.46,5.68A37,37,0,0,0,872.6,209.4q-5.72,7.24-5.71,19.77a26.92,26.92,0,0,0,3.35,13.9,27.81,27.81,0,0,0,8.66,9.21,36.5,36.5,0,0,0,12.39,5.09,69.4,69.4,0,0,0,15,1.56q16.51,0,28.33-4.5a59.65,59.65,0,0,0,19.28-11.36,44.89,44.89,0,0,0,11-14.88,37.5,37.5,0,0,0,3.54-15.07Z"/><path d="M1245.45,3.15q9,0,19.48.19t20.66,1.19a157,157,0,0,1,19.08,3,48.17,48.17,0,0,1,15.15,5.9,73.43,73.43,0,0,1,23.42,22.82q9.63,14.56,9.64,35.81,0,22.44-10.83,38.76T1311.16,135v.79q26,5.52,39.75,23.61t13.77,44.08a83.85,83.85,0,0,1-5.51,29.9,75,75,0,0,1-16.33,25.78,81.72,81.72,0,0,1-26.76,18.1q-15.93,6.88-36.79,6.89H1143.53V3.15ZM1255.68,124q31.88,0,45.84-11.22t14-33.64q0-15-4.72-23.62a33.58,33.58,0,0,0-13-13.37A51,51,0,0,0,1278.7,36a182.27,182.27,0,0,0-23-1.38h-74.77V124Zm18.89,128.67q24.78,0,38.76-13.38t14-37q0-13.77-5.12-22.82a39.77,39.77,0,0,0-13.57-14.36,57.19,57.19,0,0,0-19.48-7.48,118.49,118.49,0,0,0-22.83-2.16h-85.39v97.19Z"/><path d="M1575.21,283.33q-8.65,5.1-24,5.11-13,0-20.67-7.28t-7.67-23.8q-13.77,16.53-32.07,23.8a110.9,110.9,0,0,1-65.72,4.14,60.84,60.84,0,0,1-21.44-9.84A47.2,47.2,0,0,1,1389.27,258q-5.31-10.83-5.31-26.17,0-17.31,5.91-28.33a51.38,51.38,0,0,1,15.54-17.91,71.09,71.09,0,0,1,22-10.43q12.39-3.54,25.38-5.9,13.77-2.75,26.17-4.13a145.17,145.17,0,0,0,21.83-3.94q9.45-2.55,15-7.47t5.51-14.37q0-11-4.13-17.71a28.44,28.44,0,0,0-10.63-10.23,43.29,43.29,0,0,0-14.56-4.72,109.56,109.56,0,0,0-15.94-1.18q-21.24,0-35.41,8.07T1425.28,144h-33.45q.8-18.89,7.87-31.87a59.64,59.64,0,0,1,18.89-21.05,79.13,79.13,0,0,1,27-11.61A142.27,142.27,0,0,1,1478,76a190.7,190.7,0,0,1,27.35,2,71.61,71.61,0,0,1,24.6,8,47.22,47.22,0,0,1,17.7,17.08q6.69,11,6.69,28.66V236.16q0,11.78,1.38,17.27t9.25,5.5a40.57,40.57,0,0,0,10.23-1.57ZM1520.9,179.05q-6.29,4.69-16.52,6.85t-21.45,3.53q-11.22,1.37-22.63,3.13a83.67,83.67,0,0,0-20.46,5.68,37,37,0,0,0-14.76,11.16q-5.7,7.24-5.7,19.77a26.92,26.92,0,0,0,3.34,13.9,27.81,27.81,0,0,0,8.66,9.21,36.47,36.47,0,0,0,12.4,5.09,69.31,69.31,0,0,0,15,1.56q16.53,0,28.33-4.5a59.54,59.54,0,0,0,19.28-11.36,44.76,44.76,0,0,0,11-14.88,37.5,37.5,0,0,0,3.54-15.07Z"/><path d="M1700,110.18H1585V80.67h158.19v22.82L1618.88,254.6h129.86v29.52H1577.17V258.54Z"/><path d="M1805.41,3.15v281H1772V3.15Z"/><path d="M1840,140.68a94.76,94.76,0,0,1,18.89-33.84A88.81,88.81,0,0,1,1890,84.21q18.48-8.26,42.49-8.26,24.4,0,42.7,8.26a89.42,89.42,0,0,1,30.89,22.63A95.06,95.06,0,0,1,2025,140.68a135.76,135.76,0,0,1,6.3,41.91,133.84,133.84,0,0,1-6.3,41.71A95.35,95.35,0,0,1,2006.09,258a87.31,87.31,0,0,1-30.89,22.43q-18.3,8.06-42.7,8.06-24,0-42.49-8.06A86.74,86.74,0,0,1,1858.92,258,95,95,0,0,1,1840,224.3a133.55,133.55,0,0,1-6.3-41.71A135.46,135.46,0,0,1,1840,140.68Zm34,74.77a68.64,68.64,0,0,0,13.57,24,58.87,58.87,0,0,0,20.27,14.76,61.74,61.74,0,0,0,49.19,0,59.06,59.06,0,0,0,20.27-14.76,68.8,68.8,0,0,0,13.57-24q4.92-14.37,4.92-32.86t-4.92-32.86a71.16,71.16,0,0,0-13.57-24.2,58.08,58.08,0,0,0-20.27-15,61.63,61.63,0,0,0-49.19,0,57.9,57.9,0,0,0-20.27,15,71,71,0,0,0-13.57,24.2q-4.92,14.37-4.92,32.86T1874.07,215.45Z"/><path d="M2113.91,284.12,2038.36,80.67h37.38l57.06,169.6h.79l55.48-169.6h35l-74.37,203.45Z"/><path d="M2422.42,283.33q-8.65,5.1-24,5.11-13,0-20.66-7.28t-7.67-23.8q-13.78,16.53-32.07,23.8a110.9,110.9,0,0,1-65.72,4.14,60.89,60.89,0,0,1-21.45-9.84A47.08,47.08,0,0,1,2236.49,258q-5.31-10.83-5.31-26.17,0-17.31,5.9-28.33a51.38,51.38,0,0,1,15.54-17.91,71.31,71.31,0,0,1,22-10.43q12.39-3.54,25.38-5.9,13.77-2.75,26.17-4.13a145.55,145.55,0,0,0,21.84-3.94q9.45-2.55,14.95-7.47t5.51-14.37q0-11-4.13-17.71a28.42,28.42,0,0,0-10.62-10.23,43.36,43.36,0,0,0-14.56-4.72,109.66,109.66,0,0,0-15.94-1.18q-21.26,0-35.42,8.07T2272.5,144h-33.45q.78-18.89,7.87-31.87a59.64,59.64,0,0,1,18.89-21.05,79.16,79.16,0,0,1,27-11.61A142.42,142.42,0,0,1,2325.23,76a190.81,190.81,0,0,1,27.35,2,71.56,71.56,0,0,1,24.59,8A47.32,47.32,0,0,1,2394.88,103q6.69,11,6.69,28.66V236.16q0,11.78,1.38,17.27t9.24,5.5a40.44,40.44,0,0,0,10.23-1.57Zm-54.3-104.28q-6.3,4.69-16.53,6.85t-21.44,3.53q-11.22,1.37-22.63,3.13a83.67,83.67,0,0,0-20.46,5.68,37,37,0,0,0-14.76,11.16q-5.72,7.24-5.71,19.77a26.92,26.92,0,0,0,3.35,13.9,27.61,27.61,0,0,0,8.66,9.21,36.5,36.5,0,0,0,12.39,5.09,69.31,69.31,0,0,0,15,1.56q16.53,0,28.34-4.5a59.65,59.65,0,0,0,19.28-11.36,44.89,44.89,0,0,0,11-14.88,37.5,37.5,0,0,0,3.54-15.07Z"/></g></g></svg>