<svg xmlns="http://www.w3.org/2000/svg" viewBox="0 0 1914.99 468.27"><g id="Layer_2" data-name="Layer 2"><g id="Layer_1-2" data-name="Layer 1"><path d="M65.72,191.4,0,4.45H26.71L80.12,166.52h.52L134.58,4.45H160.5L94,191.4Z"/><path d="M194.54,4.45v187H169.66V4.45Z"/><path d="M318.25,30q-12.45-9-31.82-9A75.81,75.81,0,0,0,271,22.52a40.92,40.92,0,0,0-13.49,5.23,27.47,27.47,0,0,0-9.42,9.82q-3.54,6.15-3.54,15.32,0,8.64,5.11,14a37.81,37.81,0,0,0,13.61,8.77,114,114,0,0,0,19.25,5.63q10.73,2.22,21.86,4.84t21.86,6.15a72.46,72.46,0,0,1,19.25,9.56A45.52,45.52,0,0,1,359.09,117q5.12,9.17,5.11,23,0,14.92-6.68,25.53a55,55,0,0,1-17.15,17.28,74.44,74.44,0,0,1-23.43,9.68,113.52,113.52,0,0,1-25.79,3,109.54,109.54,0,0,1-29.72-3.92,73.3,73.3,0,0,1-24.61-11.92,56.43,56.43,0,0,1-16.76-20.42q-6.15-12.44-6.15-29.45h23.56q0,11.77,4.58,20.29a41.76,41.76,0,0,0,12,14,50.7,50.7,0,0,0,17.41,8.11,79.69,79.69,0,0,0,20.42,2.62,92.58,92.58,0,0,0,16.89-1.57A49.91,49.91,0,0,0,324.14,168a30.45,30.45,0,0,0,11-10.34q4.19-6.54,4.19-16.76,0-9.68-5.1-15.71a37.78,37.78,0,0,0-13.62-9.82,100.41,100.41,0,0,0-19.24-6.15q-10.74-2.36-21.86-4.84t-21.87-5.76a78.85,78.85,0,0,1-19.24-8.64,41.36,41.36,0,0,1-13.62-13.88q-5.1-8.5-5.1-21.34,0-14.13,5.76-24.48a50.31,50.31,0,0,1,15.32-17,68.8,68.8,0,0,1,21.73-10,95.92,95.92,0,0,1,25-3.27,100.33,100.33,0,0,1,26.71,3.4,60.52,60.52,0,0,1,21.6,10.74A51.88,51.88,0,0,1,350.45,32.6q5.37,11.13,5.89,26.57H332.78Q330.68,39,318.25,30Z"/><path d="M512.65,177.65q-19.11,17.94-54.46,17.93-36.13,0-56.42-17.14t-20.29-54.6V4.45h24.87V123.84q0,25.14,13.35,38.1t38.49,13q23.82,0,36.27-13t12.43-38.1V4.45h24.88V123.84Q531.77,159.72,512.65,177.65Z"/><path d="M638.06,4.45l73.05,187H683.62L663.2,135.1H584.13l-21,56.3h-25.4l72.79-187Zm17.28,109.71L624.19,27h-.53L592,114.16Z"/><path d="M742.53,4.45v166h99v21H717.66V4.45Z"/><path d="M990.74,4.45l73,187H1036.3l-20.42-56.3H936.81l-20.95,56.3h-25.4l72.79-187ZM1008,114.16,976.87,27h-.53l-31.68,87.19Z"/><path d="M1183.32,30.9q-14.28-10-33.91-9.95-16.76,0-28.67,6.28a56.63,56.63,0,0,0-19.64,16.89,73,73,0,0,0-11.39,24.22,108.44,108.44,0,0,0-3.66,28.27,121.41,121.41,0,0,0,3.66,30.25,72.45,72.45,0,0,0,11.39,24.87,56.26,56.26,0,0,0,19.77,16.89q12,6.28,28.8,6.28a55.46,55.46,0,0,0,21.87-4.06A49.3,49.3,0,0,0,1188,159.58a51.77,51.77,0,0,0,10.87-17.15,71.69,71.69,0,0,0,4.71-21.47h24.87q-3.66,35.36-24.35,55t-56.55,19.63q-21.74,0-38-7.46a74.53,74.53,0,0,1-27-20.55,88.38,88.38,0,0,1-16.1-30.9,131.69,131.69,0,0,1-5.37-38.22,124.73,124.73,0,0,1,5.76-38.36,92.37,92.37,0,0,1,16.89-31.29,78.75,78.75,0,0,1,27.76-21.08Q1128.2,0,1149.67,0a96.07,96.07,0,0,1,27.76,3.93,74.56,74.56,0,0,1,23.3,11.52,64.74,64.74,0,0,1,17,19,69.72,69.72,0,0,1,8.9,26.31h-24.87Q1197.58,40.85,1183.32,30.9Z"/><path d="M1227.69,25.4V4.45H1377.2v21h-62.32v166H1290V25.4Z"/><path d="M1479.7,30q-12.43-9-31.81-9a75.84,75.84,0,0,0-15.45,1.57A40.86,40.86,0,0,0,1419,27.75a27.58,27.58,0,0,0-9.43,9.82Q1406,43.72,1406,52.89q0,8.64,5.1,14a37.77,37.77,0,0,0,13.62,8.77A113.83,113.83,0,0,0,1444,81.3q10.74,2.22,21.86,4.84t21.87,6.15a72.39,72.39,0,0,1,19.24,9.56A45.52,45.52,0,0,1,1520.54,117q5.12,9.17,5.11,23,0,14.92-6.68,25.53a55,55,0,0,1-17.15,17.28,74.44,74.44,0,0,1-23.43,9.68,113.52,113.52,0,0,1-25.79,3,109.59,109.59,0,0,1-29.72-3.92,73.3,73.3,0,0,1-24.61-11.92,56.43,56.43,0,0,1-16.76-20.42q-6.15-12.44-6.15-29.45h23.57q0,11.77,4.58,20.29a41.73,41.73,0,0,0,12,14,50.87,50.87,0,0,0,17.41,8.11,79.71,79.71,0,0,0,20.43,2.62,92.56,92.56,0,0,0,16.88-1.57,49.91,49.91,0,0,0,15.32-5.37,30.47,30.47,0,0,0,11-10.34q4.19-6.54,4.19-16.76,0-9.68-5.11-15.71a37.66,37.66,0,0,0-13.61-9.82,100.52,100.52,0,0,0-19.25-6.15q-10.74-2.36-21.86-4.84t-21.86-5.76a78.92,78.92,0,0,1-19.25-8.64,41.33,41.33,0,0,1-13.61-13.88q-5.12-8.5-5.11-21.34,0-14.13,5.76-24.48a50.42,50.42,0,0,1,15.32-17,68.9,68.9,0,0,1,21.73-10,96,96,0,0,1,25-3.27,100.31,100.31,0,0,1,26.7,3.4,60.52,60.52,0,0,1,21.6,10.74A51.66,51.66,0,0,1,1511.9,32.6q5.37,11.13,5.9,26.57h-23.57Q1492.13,39,1479.7,30Z"/><path d="M1600.14,61.14A92.55,92.55,0,0,1,1617,29.85a82.31,82.31,0,0,1,28-21.73Q1661.8,0,1684.05,0t39,8.12a82.31,82.31,0,0,1,28,21.73A92.55,92.55,0,0,1,1768,61.14a123,123,0,0,1,0,73.57A92.64,92.64,0,0,1,1751.08,166a80.88,80.88,0,0,1-28,21.6q-16.77,8-39,8t-39-8a80.88,80.88,0,0,1-28-21.6,92.64,92.64,0,0,1-16.89-31.29,123,123,0,0,1,0-73.57Zm22.91,64.67a75.59,75.59,0,0,0,11.52,24.74,58.86,58.86,0,0,0,20.16,17.67q12.3,6.67,29.32,6.68t29.33-6.68a59,59,0,0,0,20.16-17.67,75.8,75.8,0,0,0,11.52-24.74,107.77,107.77,0,0,0,0-55.77,75.8,75.8,0,0,0-11.52-24.74,58.88,58.88,0,0,0-20.16-17.68q-12.32-6.68-29.33-6.67t-29.32,6.67a58.79,58.79,0,0,0-20.16,17.68A75.59,75.59,0,0,0,1623.05,70a107.77,107.77,0,0,0,0,55.77Z"/><path d="M1915,4.45v21h-97.93V84.83h85.88v21h-85.88V191.4h-24.87V4.45Z"/><path d="M108.4,277.13q26.7,0,41.76,13.1t15.05,35.87q0,17-7.72,29.85t-24.74,17.54V374A33.38,33.38,0,0,1,146,379.25a28.78,28.78,0,0,1,8.12,8.77,39.9,39.9,0,0,1,4.45,11.39,121.85,121.85,0,0,1,2.22,13.09q.53,6.81.79,13.88a118.9,118.9,0,0,0,1.31,13.87,84,84,0,0,0,3,13,31.87,31.87,0,0,0,5.89,10.87H144a15.65,15.65,0,0,1-3.53-7.86,79.92,79.92,0,0,1-1.18-11.12q-.25-6.15-.52-13.22A92.27,92.27,0,0,0,137.2,418q-1-6.81-2.62-13a30.52,30.52,0,0,0-5-10.74,24.53,24.53,0,0,0-8.9-7.33q-5.49-2.75-14.66-2.75H45.3v79.86H20.42V277.13ZM113.63,362a36,36,0,0,0,13.75-5.11,27.83,27.83,0,0,0,9.42-10.21q3.54-6.4,3.54-16.63,0-14.13-7.86-23t-25.39-8.9H45.3v65.2H97.14A100.44,100.44,0,0,0,113.63,362Z"/><path d="M280.68,277.13l73.05,187H326.24l-20.43-56.29H226.74L205.8,464.08H180.4l72.79-186.95ZM298,386.84,266.8,299.65h-.52L234.6,386.84Z"/><path d="M438.82,277.13q43.2,0,66.51,22t23.3,67q0,23.57-5.24,41.76t-16.23,30.63a70.3,70.3,0,0,1-28,19q-17,6.56-40.32,6.55H374.67V277.13Zm2.1,166a103.08,103.08,0,0,0,10.47-.65,58.77,58.77,0,0,0,13.35-3.14,61.13,61.13,0,0,0,14-7.2,47.41,47.41,0,0,0,12.44-12.83,72.06,72.06,0,0,0,9-20.29q3.54-12.18,3.53-29.46a125.29,125.29,0,0,0-3.27-30,57.58,57.58,0,0,0-10.73-22.52,47.33,47.33,0,0,0-19.25-14.14q-11.78-4.83-29.06-4.84H399.55V443.13Z"/><path d="M587.54,277.13v187H562.66V277.13Z"/><path d="M745,303.58q-14.26-9.94-33.9-9.95-16.75,0-28.67,6.28a56.54,56.54,0,0,0-19.64,16.89A72.88,72.88,0,0,0,651.42,341a108,108,0,0,0-3.66,28.28,120.81,120.81,0,0,0,3.66,30.24,72.26,72.26,0,0,0,11.39,24.87,56.26,56.26,0,0,0,19.77,16.89q12,6.29,28.8,6.28a55.59,55.59,0,0,0,21.86-4.05,49.64,49.64,0,0,0,16.5-11.26,51.79,51.79,0,0,0,10.86-17.15,71.46,71.46,0,0,0,4.72-21.47h24.87q-3.68,35.34-24.35,55t-56.55,19.64q-21.75,0-38-7.46a74.67,74.67,0,0,1-27-20.56,88.16,88.16,0,0,1-16.1-30.89,131.76,131.76,0,0,1-5.37-38.23,124.78,124.78,0,0,1,5.76-38.36,92.55,92.55,0,0,1,16.89-31.29,78.78,78.78,0,0,1,27.75-21.07q16.63-7.73,38.1-7.73a96,96,0,0,1,27.75,3.93,74.72,74.72,0,0,1,23.31,11.52,65.15,65.15,0,0,1,17,19,69.83,69.83,0,0,1,8.9,26.32H763.48Q759.3,313.53,745,303.58Z"/><path d="M902,277.13l73,187h-27.5l-20.42-56.29H848.05L827.1,464.08H801.71l72.78-186.95Zm17.28,109.71-31.16-87.19h-.52L855.9,386.84Z"/><path d="M1020.85,277.13v166h99v20.95H996V277.13Z"/><path d="M1344.08,303.58q-14.26-9.94-33.91-9.95-16.76,0-28.67,6.28a56.5,56.5,0,0,0-19.63,16.89A72.88,72.88,0,0,0,1250.48,341a108,108,0,0,0-3.67,28.28,120.81,120.81,0,0,0,3.67,30.24,72.26,72.26,0,0,0,11.39,24.87,56.14,56.14,0,0,0,19.76,16.89q12,6.29,28.81,6.28a55.63,55.63,0,0,0,21.86-4.05,49.49,49.49,0,0,0,16.49-11.26,51.82,51.82,0,0,0,10.87-17.15,71.15,71.15,0,0,0,4.71-21.47h24.88q-3.68,35.34-24.35,55t-56.56,19.64q-21.73,0-38-7.46a74.5,74.5,0,0,1-27-20.56,88,88,0,0,1-16.1-30.89,131.76,131.76,0,0,1-5.37-38.23,124.78,124.78,0,0,1,5.76-38.36,92.55,92.55,0,0,1,16.89-31.29,78.6,78.6,0,0,1,27.75-21.07q16.62-7.73,38.1-7.73a96,96,0,0,1,27.75,3.93,74.67,74.67,0,0,1,23.3,11.52,64.86,64.86,0,0,1,17,19,69.66,69.66,0,0,1,8.9,26.32h-24.87Q1358.36,313.53,1344.08,303.58Z"/><path d="M1501,277.13l73,187H1546.6l-20.42-56.29h-79.07l-20.95,56.29h-25.4l72.79-186.95Zm17.28,109.71-31.15-87.19h-.53L1455,386.84Z"/><path d="M1683,277.13q26.71,0,41.76,13.1t15.06,35.87q0,17-7.73,29.85t-24.74,17.54V374a33.38,33.38,0,0,1,13.22,5.24,28.66,28.66,0,0,1,8.12,8.77,39.61,39.61,0,0,1,4.45,11.39,121.83,121.83,0,0,1,2.23,13.09q.52,6.81.78,13.88a118.9,118.9,0,0,0,1.31,13.87,85.17,85.17,0,0,0,3,13,32,32,0,0,0,5.89,10.87h-27.75a15.57,15.57,0,0,1-3.53-7.86,78.43,78.43,0,0,1-1.18-11.12q-.27-6.15-.53-13.22a91,91,0,0,0-1.57-13.88q-1.05-6.81-2.62-13a30.33,30.33,0,0,0-5-10.74,24.61,24.61,0,0,0-8.9-7.33q-5.5-2.75-14.66-2.75h-60.75v79.86H1595V277.13Zm5.24,84.84a35.87,35.87,0,0,0,13.74-5.11,27.94,27.94,0,0,0,9.43-10.21q3.54-6.4,3.54-16.63,0-14.13-7.86-23t-25.4-8.9h-61.79v65.2h51.84A100.66,100.66,0,0,0,1688.25,362Z"/><path d="M1906.09,277.13v20.95H1801.88v59.44H1899v20.94h-97.14v64.67h105v20.95H1777V277.13Z"/></g></g></svg>